<svg id="Layer_1" data-name="Layer 1" xmlns="http://www.w3.org/2000/svg" xmlns:xlink="http://www.w3.org/1999/xlink" viewBox="0 0 300 125"><defs><style>.cls-1{fill:none;}.cls-2{clip-path:url(#clip-path);}.cls-10,.cls-3{fill:#ff6648;}.cls-3,.cls-4,.cls-5,.cls-6{fill-rule:evenodd;}.cls-14,.cls-4{fill:#de416c;}.cls-5{fill:#00f7b1;}.cls-6{fill:#00b9d7;}.cls-7{clip-path:url(#clip-path-3);}.cls-8{fill:#efefef;}.cls-9{clip-path:url(#clip-path-4);}.cls-11{clip-path:url(#clip-path-5);}.cls-12{fill:#ff8f2a;}.cls-13{clip-path:url(#clip-path-6);}.cls-15{clip-path:url(#clip-path-7);}.cls-16{fill:#b8b8b8;}.cls-17{clip-path:url(#clip-path-8);}.cls-18{fill:#dbdbdb;}</style><clipPath id="clip-path"><rect class="cls-1" x="88.91" y="1.32" width="121.9" height="121.9"/></clipPath><clipPath id="clip-path-3"><path class="cls-1" d="M163.05,77.05a9.17,9.17,0,0,0-8,4.6l-4.92,8.51a9.18,9.18,0,0,0,0,9.18c1.51,2.63,3.4,5.9,4.92,8.52a9.18,9.18,0,0,0,8,4.59h9.83a9.18,9.18,0,0,0,8-4.59c1.52-2.62,3.41-5.89,4.92-8.52a9.18,9.18,0,0,0,0-9.18l-4.92-8.51a9.17,9.17,0,0,0-8-4.6Z"/></clipPath><clipPath id="clip-path-4"><path class="cls-1" d="M149,94.87a9.14,9.14,0,0,0,1.23,4.47c1.51,2.63,3.4,5.9,4.92,8.52a9.14,9.14,0,0,0,7.35,4.57l11.58-.05a9.21,9.21,0,0,0,3.48-1.18l-4.39-7.6-10.11.11-5.12-8.87Z"/></clipPath><clipPath id="clip-path-5"><path class="cls-1" d="M155.3,81.32l-5.64,9.88a9.2,9.2,0,0,0-.71,3.68l9,0L162.69,86l10.29-.2,4.41-7.58a9.15,9.15,0,0,0-3.7-1.15l-11,0a9.15,9.15,0,0,0-7.4,4.26"/></clipPath><clipPath id="clip-path-6"><path class="cls-1" d="M173,85.84l5.15,8.7-5,9,4.38,7.61a9.19,9.19,0,0,0,2.82-2.56l5.84-10.12a9.16,9.16,0,0,0,0-7.53L180,80.41a9.09,9.09,0,0,0-2.61-2.18Z"/></clipPath><clipPath id="clip-path-7"><polygon class="cls-1" points="157.95 94.8 163.07 103.67 167.76 94.72 162.71 85.98 157.95 94.8"/></clipPath><clipPath id="clip-path-8"><polygon class="cls-1" points="162.76 86.03 167.74 94.67 178.06 94.53 172.94 85.82 162.76 86.03"/></clipPath></defs><title>happylager</title><g id="LOGO_ARQCUBO" data-name="LOGO ARQCUBO"><g class="cls-2"><g class="cls-2"><path d="M146.66,102.59a9.7,9.7,0,0,1-1.17,5,9.23,9.23,0,0,1-3.1,3.23,13.38,13.38,0,0,1-4.39,1.75,23.55,23.55,0,0,1-5.06.54H118.61v-36h14.33a21.85,21.85,0,0,1,4.27.43,12.82,12.82,0,0,1,4,1.47,8.47,8.47,0,0,1,2.89,2.82,8.36,8.36,0,0,1,1.12,4.53,7.44,7.44,0,0,1-1.63,5,8.93,8.93,0,0,1-4.27,2.82v.1a10.14,10.14,0,0,1,2.88.94,8.47,8.47,0,0,1,2.33,1.76,8.2,8.2,0,0,1,1.58,2.49,8.33,8.33,0,0,1,.58,3.2M136.8,87.5a2.88,2.88,0,0,0-1.39-2.67,8.16,8.16,0,0,0-4.14-.84H127v7.42h4.67a6.31,6.31,0,0,0,3.79-1,3.39,3.39,0,0,0,1.34-2.92M138,101.77a3.19,3.19,0,0,0-1.67-3.1,9.9,9.9,0,0,0-4.47-.86H127V106h4.88a14,14,0,0,0,2.1-.17,6.93,6.93,0,0,0,2-.64,3.83,3.83,0,0,0,1.44-1.3,3.73,3.73,0,0,0,.56-2.16"/><path d="M141.84,71.19a19.23,19.23,0,0,1-8.08,1.6,21.16,21.16,0,0,1-7.7-1.37,17.83,17.83,0,0,1-10.19-9.91,21.1,21.1,0,0,1,0-15.55A17.24,17.24,0,0,1,120,40a18.36,18.36,0,0,1,6.2-3.78,22.13,22.13,0,0,1,15.17,0,14.43,14.43,0,0,1,6,3.94l-5.9,5.89a7.4,7.4,0,0,0-3.2-2.49,10.67,10.67,0,0,0-4.07-.81,10.28,10.28,0,0,0-4.19.84,10,10,0,0,0-3.28,2.31,10.58,10.58,0,0,0-2.13,3.48,12.29,12.29,0,0,0-.76,4.4,12.64,12.64,0,0,0,.76,4.47,10.5,10.5,0,0,0,2.11,3.48A9.38,9.38,0,0,0,130,64a10.25,10.25,0,0,0,4.11.81,9.58,9.58,0,0,0,4.53-1,8.87,8.87,0,0,0,3.09-2.64l6,5.69a17.17,17.17,0,0,1-5.89,4.34"/><path d="M182.33,64.18a12.91,12.91,0,0,1-3.12,4.57,14.41,14.41,0,0,1-4.91,3,19.62,19.62,0,0,1-12.78,0,13.82,13.82,0,0,1-4.82-3,12.75,12.75,0,0,1-3-4.57,15.64,15.64,0,0,1-1.07-5.92V35.85h8.64v21.7a9.8,9.8,0,0,0,.38,2.79,7.1,7.1,0,0,0,1.17,2.37,5.53,5.53,0,0,0,2.08,1.65,8.31,8.31,0,0,0,6.25,0,5.72,5.72,0,0,0,2.11-1.65,6.74,6.74,0,0,0,1.17-2.37,10.56,10.56,0,0,0,.35-2.79V35.85h8.69V58.26a15.45,15.45,0,0,1-1.09,5.92"/><path d="M131.15,31.19l-1.54-3.87H122l-1.45,3.87h-5.19l8.29-19.74h4.63l8.19,19.74Zm-5.3-14.47-2.51,6.78h5Z"/><path d="M151.33,31.19l-4.28-7.83h-1.63v7.83h-4.65V11.45h7.52a12.8,12.8,0,0,1,2.78.3,7.12,7.12,0,0,1,2.42,1,5.18,5.18,0,0,1,1.72,1.85,5.71,5.71,0,0,1,.64,2.84,5.2,5.2,0,0,1-1.09,3.37,6,6,0,0,1-3,2l5.16,8.44Zm-.19-13.69a2,2,0,0,0-.3-1.13,2,2,0,0,0-.75-.67,3.72,3.72,0,0,0-1-.32,8.53,8.53,0,0,0-1.11-.08h-2.55v4.6h2.27a7.14,7.14,0,0,0,1.21-.1,4,4,0,0,0,1.12-.34,2.16,2.16,0,0,0,.83-.73,2.2,2.2,0,0,0,.32-1.23"/><path d="M171.44,31.19a13.42,13.42,0,0,1-4.3-.66,9.23,9.23,0,0,1-3.33-2,9,9,0,0,1-2.15-3.18,11.35,11.35,0,0,1-.76-4.31,10.23,10.23,0,0,1,.81-4.12A9.38,9.38,0,0,1,164,13.74a10.2,10.2,0,0,1,3.4-2.08,12.07,12.07,0,0,1,4.26-.74,11.9,11.9,0,0,1,4.23.74,10.23,10.23,0,0,1,3.38,2.06,9.38,9.38,0,0,1,2.21,3.18,10.29,10.29,0,0,1,.8,4.09,8.51,8.51,0,0,1-.92,3.93,7.59,7.59,0,0,1-2,2.48v.09l4.16-.09v3.79Zm5.74-10.06a6.7,6.7,0,0,0-.4-2.37,5.31,5.31,0,0,0-1.15-1.87,5.12,5.12,0,0,0-1.77-1.21,5.71,5.71,0,0,0-2.25-.44,5.6,5.6,0,0,0-2.22.44,5.31,5.31,0,0,0-1.77,1.21,5.5,5.5,0,0,0-1.17,1.87,6.49,6.49,0,0,0-.42,2.37,7.06,7.06,0,0,0,.4,2.44,5.49,5.49,0,0,0,1.15,1.89,5,5,0,0,0,1.75,1.23,6,6,0,0,0,4.48,0,5.17,5.17,0,0,0,1.78-1.23,5.53,5.53,0,0,0,1.17-1.89,6.83,6.83,0,0,0,.42-2.44"/><polygon class="cls-3" points="88.91 99.97 88.91 123.05 111.99 123.05 111.99 116.36 95.73 116.36 95.73 99.97 88.91 99.97"/><polygon class="cls-4" points="187.57 116.39 187.57 123.21 210.65 123.21 210.65 100.14 203.95 100.14 203.95 116.39 187.57 116.39"/><polygon class="cls-5" points="112.15 1.32 89.07 1.32 89.07 24.4 95.77 24.4 95.77 8.14 112.15 8.14 112.15 1.32"/><polygon class="cls-6" points="210.81 24.56 210.81 1.48 187.73 1.48 187.73 8.18 203.99 8.18 203.99 24.56 210.81 24.56"/></g><g class="cls-7"><rect class="cls-8" x="148.57" y="76.68" width="38.78" height="36.14"/></g><g class="cls-9"><rect class="cls-10" x="153.6" y="88.02" width="18.53" height="31.2" transform="translate(-29.99 95.31) rotate(-30)"/></g><g class="cls-11"><rect class="cls-12" x="147.19" y="76.67" width="31.23" height="18.59"/></g><g class="cls-13"><rect class="cls-14" x="162.49" y="85.46" width="31.22" height="18.53" transform="translate(7.02 201.6) rotate(-60)"/></g><g class="cls-15"><rect class="cls-16" x="158.25" y="86.7" width="9.29" height="16.25" transform="translate(-25.59 94.15) rotate(-30)"/></g><g class="cls-17"><rect class="cls-18" x="162.38" y="85.44" width="16.06" height="9.6"/></g></g></g></svg>