<svg xmlns="http://www.w3.org/2000/svg" viewBox="0 0 206.9 180"><defs><style>.a{fill:#00afc1;}.b{opacity:0.2;}.c{fill:#00f7b0;}</style></defs><title>headingbg-yellow</title><rect class="a" width="206.9" height="180"/><g class="b"><path class="c" d="M67.8-4.1l-4.3-7.5a8.7,8.7,0,0,0-7.4-4.3H47.4A8.37,8.37,0,0,0,40-11.6L35.7-4.1a8.78,8.78,0,0,0,0,8.6L40,12a8.7,8.7,0,0,0,7.4,4.3h8.7A8.37,8.37,0,0,0,63.5,12l4.3-7.5A8.78,8.78,0,0,0,67.8-4.1Zm-31.3.5,4.3-7.5a7.69,7.69,0,0,1,6.6-3.8h8.7a8,8,0,0,1,3.3.8L56.3-8.7l-.3.6L47.2-8h-.1c-.2,0-.3.1-.4.3h0L42.6-.2h-7A6.65,6.65,0,0,1,36.5-3.6ZM51.9.6,59.8.5,56,7.5l-7.7.1ZM47.4,7,43.5.2l3.6-6.7L51,.1ZM51.8-.4,48-7.1l7.8-.2L59.7-.6ZM47.4,15.2a7.81,7.81,0,0,1-6.6-3.8L36.5,3.9a7.48,7.48,0,0,1-1-3.2h7l4.4,7.6a.4.4,0,0,0,.4.2L56,8.4l3.5,6a7.73,7.73,0,0,1-3.4.8ZM67,3.9l-4.3,7.5a9.15,9.15,0,0,1-2.3,2.5L57,7.9,61.2.2a.45.45,0,0,0,0-.5L56.8-7.7l.1-.3,3.3-5.7a7.18,7.18,0,0,1,2.4,2.5L67-3.6A7.7,7.7,0,0,1,67,3.9Z"/><path class="c" d="M67.8,31.8l-4.3-7.5A8.49,8.49,0,0,0,56.1,20H47.4A8.37,8.37,0,0,0,40,24.3l-4.3,7.5a8.78,8.78,0,0,0,0,8.6L40,47.9a8.7,8.7,0,0,0,7.4,4.3h8.7a8.37,8.37,0,0,0,7.4-4.3l4.3-7.5A8.78,8.78,0,0,0,67.8,31.8Zm-31.3.5,4.3-7.5A7.69,7.69,0,0,1,47.4,21h8.7a8,8,0,0,1,3.3.8l-3.1,5.4-.3.6-8.6.2h-.1c-.2,0-.3.1-.4.3h0l-4.1,7.5h-7A5.19,5.19,0,0,1,36.5,32.3Zm15.4,4.2,7.9-.1-3.8,7-7.7.1Zm-4.5,6.4-3.9-6.8,3.6-6.7L51,36.1Zm4.4-7.4L48,28.9l7.8-.2,3.9,6.7ZM47.4,51.2a7.81,7.81,0,0,1-6.6-3.8l-4.3-7.5a7.48,7.48,0,0,1-1-3.2h7l4.4,7.6a.4.4,0,0,0,.4.2l8.6-.1,3.5,6a7.73,7.73,0,0,1-3.4.8ZM67,39.9l-4.3,7.5a9.15,9.15,0,0,1-2.3,2.5l-3.4-6,4.2-7.7a.45.45,0,0,0,0-.5l-4.4-7.4L57,28l3.3-5.7a7.18,7.18,0,0,1,2.4,2.5L67,32.3A7.89,7.89,0,0,1,67,39.9Z"/><path class="c" d="M67.8,67.7l-4.3-7.5a8.7,8.7,0,0,0-7.4-4.3H47.4A8.37,8.37,0,0,0,40,60.2l-4.3,7.5a8.78,8.78,0,0,0,0,8.6L40,83.8a8.7,8.7,0,0,0,7.4,4.3h8.7a8.37,8.37,0,0,0,7.4-4.3l4.3-7.5A8.78,8.78,0,0,0,67.8,67.7Zm-31.3.5,4.3-7.5a7.69,7.69,0,0,1,6.6-3.8h8.7a8,8,0,0,1,3.3.8l-3.1,5.4-.3.6-8.6.2h-.1c-.2,0-.3.1-.4.3h0l-4.1,7.5h-7A5.43,5.43,0,0,1,36.5,68.2Zm15.4,4.3,7.9-.1-3.8,7-7.7.1Zm-4.5,6.3L43.5,72l3.6-6.7L51,72Zm4.4-7.3L48,64.8l7.8-.2,3.9,6.7ZM47.4,87.1a7.81,7.81,0,0,1-6.6-3.8l-4.3-7.5a7.48,7.48,0,0,1-1-3.2h7l4.4,7.6a.4.4,0,0,0,.4.2l8.6-.1,3.5,6a7.73,7.73,0,0,1-3.4.8ZM67,75.8l-4.3,7.5a9.15,9.15,0,0,1-2.3,2.5l-3.4-6,4.2-7.7a.45.45,0,0,0,0-.5l-4.4-7.4.2-.3,3.3-5.7a7.18,7.18,0,0,1,2.4,2.5L67,68.2A7.89,7.89,0,0,1,67,75.8Z"/><path class="c" d="M67.8,103.7l-4.3-7.5a8.7,8.7,0,0,0-7.4-4.3H47.4A8.37,8.37,0,0,0,40,96.2l-4.3,7.5a8.78,8.78,0,0,0,0,8.6l4.3,7.5a8.7,8.7,0,0,0,7.4,4.3h8.7a8.37,8.37,0,0,0,7.4-4.3l4.3-7.5A8.78,8.78,0,0,0,67.8,103.7Zm-31.3.5,4.3-7.5a7.69,7.69,0,0,1,6.6-3.8h8.7a8,8,0,0,1,3.3.8L56.2,99l-.3.6-8.6.2h-.1c-.2,0-.3.1-.4.3h0l-4.1,7.5h-7A5.73,5.73,0,0,1,36.5,104.2Zm15.4,4.2,7.9-.1-3.8,7-7.7.1Zm-4.5,6.4L43.5,108l3.6-6.7L51,108Zm4.4-7.4L48,100.8l7.8-.2,3.9,6.7Zm-4.4,15.7a7.81,7.81,0,0,1-6.6-3.8l-4.3-7.5a7.48,7.48,0,0,1-1-3.2h7l4.4,7.6a.4.4,0,0,0,.4.2l8.6-.1,3.5,6a7.73,7.73,0,0,1-3.4.8ZM67,111.8l-4.3,7.5a9.15,9.15,0,0,1-2.3,2.5l-3.4-6,4.2-7.7a.45.45,0,0,0,0-.5l-4.4-7.4.2-.3,3.3-5.7a7.18,7.18,0,0,1,2.4,2.5l4.3,7.5A7.89,7.89,0,0,1,67,111.8Z"/><path class="c" d="M67.8,139.6l-4.3-7.5a8.7,8.7,0,0,0-7.4-4.3H47.4a8.37,8.37,0,0,0-7.4,4.3l-4.3,7.5a8.78,8.78,0,0,0,0,8.6l4.3,7.5a8.7,8.7,0,0,0,7.4,4.3h8.7a8.37,8.37,0,0,0,7.4-4.3l4.3-7.5A8.78,8.78,0,0,0,67.8,139.6Zm-31.3.5,4.3-7.5a7.69,7.69,0,0,1,6.6-3.8h8.7a8,8,0,0,1,3.3.8L56.3,135l-.3.6-8.6.2h-.1c-.2,0-.3.1-.4.3h0l-4.1,7.5h-7A5.31,5.31,0,0,1,36.5,140.1Zm15.4,4.2,7.9-.1-3.8,7-7.7.1Zm-4.5,6.4-3.9-6.8,3.6-6.7,3.9,6.7Zm4.4-7.4L48,136.7l7.8-.2,3.9,6.7ZM47.4,159a7.81,7.81,0,0,1-6.6-3.8l-4.3-7.5a7.48,7.48,0,0,1-1-3.2h7l4.4,7.6a.4.4,0,0,0,.4.2l8.6-.1,3.5,6a7.73,7.73,0,0,1-3.4.8ZM67,147.7l-4.3,7.5a9.15,9.15,0,0,1-2.3,2.5l-3.4-6,4.2-7.7a.45.45,0,0,0,0-.5l-4.4-7.4.2-.3,3.3-5.7a7.18,7.18,0,0,1,2.4,2.5l4.3,7.5A7.89,7.89,0,0,1,67,147.7Z"/><path class="c" d="M67.8,175.6l-4.3-7.5a8.7,8.7,0,0,0-7.4-4.3H47.4a8.37,8.37,0,0,0-7.4,4.3l-4.3,7.5a8.78,8.78,0,0,0,0,8.6l4.3,7.5a8.7,8.7,0,0,0,7.4,4.3h8.7a8.37,8.37,0,0,0,7.4-4.3l4.3-7.5A8.78,8.78,0,0,0,67.8,175.6Zm-31.3.5,4.3-7.5a7.69,7.69,0,0,1,6.6-3.8h8.7a8,8,0,0,1,3.3.8L56.3,171l-.3.6-8.6.2h-.1c-.2,0-.3.1-.4.3h0l-4.1,7.5h-7A5.19,5.19,0,0,1,36.5,176.1Zm15.4,4.2,7.9-.1-3.8,7-7.7.1Zm-4.5,6.4-3.9-6.8,3.6-6.7,3.9,6.7Zm4.4-7.4L48,172.7l7.8-.2,3.9,6.7Zm-4.4,15.6a7.81,7.81,0,0,1-6.6-3.8l-4.3-7.5a7.48,7.48,0,0,1-1-3.2h7l4.4,7.6a.4.4,0,0,0,.4.2l8.6-.1,3.5,6a7.73,7.73,0,0,1-3.4.8ZM67,183.6l-4.3,7.5a9.15,9.15,0,0,1-2.3,2.5l-3.4-6,4.2-7.7a.45.45,0,0,0,0-.5L56.8,172l.2-.3,3.3-5.7a7.18,7.18,0,0,1,2.4,2.5L67,176A7.89,7.89,0,0,1,67,183.6Z"/><path class="c" d="M33.3,13.9,29,6.4a8.7,8.7,0,0,0-7.4-4.3H12.9A8.49,8.49,0,0,0,5.5,6.4L1.2,13.9a8.78,8.78,0,0,0,0,8.6L5.5,30a8.7,8.7,0,0,0,7.4,4.3h8.7A8.37,8.37,0,0,0,29,30l4.3-7.5A8.3,8.3,0,0,0,33.3,13.9ZM2,14.4,6.3,6.9a7.69,7.69,0,0,1,6.6-3.8h8.7a8,8,0,0,1,3.3.8L21.8,9.3l-.3.6-8.8.1h-.1c-.2,0-.3.1-.4.3h0L8.1,17.8h-7A6.65,6.65,0,0,1,2,14.4Zm15.4,4.2,7.9-.1-3.8,7-7.7.1ZM12.9,25,9,18.2l3.6-6.7,3.9,6.7Zm4.4-7.4L13.5,11l7.8-.2,3.9,6.7ZM12.9,33.3a7.81,7.81,0,0,1-6.6-3.8L2,22a7.48,7.48,0,0,1-1-3.2H8l4.4,7.6a.4.4,0,0,0,.4.2l8.6-.1,3.5,6a7.73,7.73,0,0,1-3.4.8ZM32.5,22l-4.3,7.5A9.15,9.15,0,0,1,25.9,32l-3.4-6,4.2-7.7a.45.45,0,0,0,0-.5l-4.4-7.4.2-.3,3.3-5.7a7.18,7.18,0,0,1,2.4,2.5l4.3,7.5A7.89,7.89,0,0,1,32.5,22Z"/><path class="c" d="M33.3,49.8,29,42.3A8.7,8.7,0,0,0,21.6,38H12.9a8.37,8.37,0,0,0-7.4,4.3L1.2,49.8a8.78,8.78,0,0,0,0,8.6l4.3,7.5a8.7,8.7,0,0,0,7.4,4.3h8.7A8.37,8.37,0,0,0,29,65.9l4.3-7.5A8.3,8.3,0,0,0,33.3,49.8ZM2,50.3l4.3-7.5A7.69,7.69,0,0,1,12.9,39h8.7a8,8,0,0,1,3.3.8l-3.1,5.4-.3.6-8.6.2h-.1c-.2,0-.3.1-.4.3h0L8.3,53.8h-7A5.31,5.31,0,0,1,2,50.3Zm15.4,4.2,7.9-.1-3.8,7-7.7.1Zm-4.5,6.4L9,54.2l3.6-6.7,3.9,6.7Zm4.4-7.4-3.8-6.6,7.8-.2,3.9,6.7ZM12.9,69.2a7.81,7.81,0,0,1-6.6-3.8L2,57.9a7.48,7.48,0,0,1-1-3.2H8l4.4,7.6a.4.4,0,0,0,.4.2l8.6-.1,3.5,6a7.73,7.73,0,0,1-3.4.8ZM32.5,57.9l-4.3,7.5a9.15,9.15,0,0,1-2.3,2.5l-3.4-6,4.2-7.7a.45.45,0,0,0,0-.5l-4.4-7.4.2-.3,3.3-5.7a7.18,7.18,0,0,1,2.4,2.5l4.3,7.5A7.89,7.89,0,0,1,32.5,57.9Z"/><path class="c" d="M33.3,85.8,29,78.3A8.7,8.7,0,0,0,21.6,74H12.9a8.37,8.37,0,0,0-7.4,4.3L1.2,85.8a8.78,8.78,0,0,0,0,8.6l4.3,7.5a8.7,8.7,0,0,0,7.4,4.3h8.7a8.37,8.37,0,0,0,7.4-4.3l4.3-7.5A8.3,8.3,0,0,0,33.3,85.8ZM2,86.3l4.3-7.5A7.69,7.69,0,0,1,12.9,75h8.7a8,8,0,0,1,3.3.8l-3.1,5.4-.3.6-8.6.2h-.1c-.2,0-.3.1-.4.3h0L8.3,89.8h-7A5.19,5.19,0,0,1,2,86.3Zm15.4,4.2,7.9-.1-3.8,7-7.7.1Zm-4.5,6.4L9,90.1l3.6-6.7,3.9,6.7Zm4.4-7.4-3.8-6.6,7.8-.2,3.9,6.7Zm-4.4,15.6a7.81,7.81,0,0,1-6.6-3.8L2,93.9a7.48,7.48,0,0,1-1-3.2H8l4.4,7.6a.4.4,0,0,0,.4.2l8.6-.1,3.5,6a7.73,7.73,0,0,1-3.4.8H12.9ZM32.5,93.9l-4.3,7.5a9.15,9.15,0,0,1-2.3,2.5l-3.4-6,4.2-7.7a.45.45,0,0,0,0-.5l-4.4-7.4.2-.3,3.3-5.7a7.18,7.18,0,0,1,2.4,2.5l4.3,7.5A7.89,7.89,0,0,1,32.5,93.9Z"/><path class="c" d="M33.3,121.7,29,114.2a8.7,8.7,0,0,0-7.4-4.3H12.9a8.37,8.37,0,0,0-7.4,4.3l-4.3,7.5a8.78,8.78,0,0,0,0,8.6l4.3,7.5a8.7,8.7,0,0,0,7.4,4.3h8.7a8.37,8.37,0,0,0,7.4-4.3l4.3-7.5A8.3,8.3,0,0,0,33.3,121.7ZM2,122.2l4.3-7.5a7.69,7.69,0,0,1,6.6-3.8h8.7a8,8,0,0,1,3.3.8l-3.1,5.4-.3.6-8.6.2h-.1c-.2,0-.3.1-.4.3h0l-4.1,7.5h-7A5.31,5.31,0,0,1,2,122.2Zm15.4,4.2,7.9-.1-3.8,7-7.7.1Zm-4.5,6.4L9,126l3.6-6.7,3.9,6.7Zm4.4-7.4-3.8-6.6,7.8-.2,3.9,6.7Zm-4.4,15.7a7.81,7.81,0,0,1-6.6-3.8L2,129.8a7.48,7.48,0,0,1-1-3.2H8l4.4,7.6a.4.4,0,0,0,.4.2l8.6-.1,3.5,6a7.73,7.73,0,0,1-3.4.8Zm19.6-11.3-4.3,7.5a9.15,9.15,0,0,1-2.3,2.5l-3.4-6,4.2-7.7a.45.45,0,0,0,0-.5l-4.4-7.4.2-.3,3.3-5.7a7.18,7.18,0,0,1,2.4,2.5l4.3,7.5A7.89,7.89,0,0,1,32.5,129.8Z"/><path class="c" d="M33.3,157.7,29,150.2a8.7,8.7,0,0,0-7.4-4.3H12.9a8.37,8.37,0,0,0-7.4,4.3l-4.3,7.5a8.78,8.78,0,0,0,0,8.6l4.3,7.5a8.7,8.7,0,0,0,7.4,4.3h8.7a8.37,8.37,0,0,0,7.4-4.3l4.3-7.5A8.3,8.3,0,0,0,33.3,157.7ZM2,158.2l4.3-7.5a7.69,7.69,0,0,1,6.6-3.8h8.7a8,8,0,0,1,3.3.8l-3.1,5.4-.3.6-8.6.2h-.1c-.2,0-.3.1-.4.3h0l-4.1,7.5h-7A5.19,5.19,0,0,1,2,158.2Zm15.4,4.2,7.9-.1-3.8,7-7.7.1Zm-4.5,6.4L9,162l3.6-6.7,3.9,6.7Zm4.4-7.4-3.8-6.6,7.8-.2,3.9,6.7ZM12.9,177a7.81,7.81,0,0,1-6.6-3.8L2,165.7a7.48,7.48,0,0,1-1-3.2H8l4.4,7.6a.4.4,0,0,0,.4.2l8.6-.1,3.5,6a7.73,7.73,0,0,1-3.4.8Zm19.6-11.3-4.3,7.5a9.15,9.15,0,0,1-2.3,2.5l-3.4-6,4.2-7.7a.45.45,0,0,0,0-.5l-4.4-7.4.2-.3,3.3-5.7a7.18,7.18,0,0,1,2.4,2.5l4.3,7.5A7.89,7.89,0,0,1,32.5,165.7Z"/><path class="c" d="M136.8-4.1l-4.3-7.5a8.7,8.7,0,0,0-7.4-4.3h-8.7a8.37,8.37,0,0,0-7.4,4.3l-4.3,7.5a8.78,8.78,0,0,0,0,8.6L109,12a8.7,8.7,0,0,0,7.4,4.3h8.7a8.37,8.37,0,0,0,7.4-4.3l4.3-7.5A8.78,8.78,0,0,0,136.8-4.1Zm-31.3.5,4.3-7.5a7.69,7.69,0,0,1,6.6-3.8h8.7a8,8,0,0,1,3.3.8l-3.1,5.4-.3.6-8.8.1h-.1c-.2,0-.3.1-.4.3h0L111.6-.2h-7A5.8,5.8,0,0,1,105.5-3.6ZM120.8.6l7.9-.1-3.8,7-7.7.1ZM116.4,7,112.5.2l3.6-6.7L120,.2Zm4.4-7.4L117-7.1l7.8-.2,3.9,6.7Zm-4.4,15.6a7.81,7.81,0,0,1-6.6-3.8l-4.3-7.5a7.48,7.48,0,0,1-1-3.2h7l4.4,7.6a.4.4,0,0,0,.4.2l8.6-.1,3.5,6a7.73,7.73,0,0,1-3.4.8ZM135.9,3.9l-4.3,7.5a9.15,9.15,0,0,1-2.3,2.5l-3.4-6L130.1.2a.45.45,0,0,0,0-.5l-4.4-7.4.2-.3,3.3-5.7a7.18,7.18,0,0,1,2.4,2.5l4.3,7.5A7.4,7.4,0,0,1,135.9,3.9Z"/><path class="c" d="M136.8,31.8l-4.3-7.5a8.7,8.7,0,0,0-7.4-4.3h-8.7a8.37,8.37,0,0,0-7.4,4.3l-4.3,7.5a8.78,8.78,0,0,0,0,8.6l4.3,7.5a8.7,8.7,0,0,0,7.4,4.3h8.7a8.37,8.37,0,0,0,7.4-4.3l4.3-7.5A8.78,8.78,0,0,0,136.8,31.8Zm-31.3.5,4.3-7.5a7.69,7.69,0,0,1,6.6-3.8h8.7a8,8,0,0,1,3.3.8l-3.1,5.4-.3.6-8.6.2h-.1c-.2,0-.3.1-.4.3h0l-4.1,7.5h-7A4.69,4.69,0,0,1,105.5,32.3Zm15.3,4.2,7.9-.1-3.8,7-7.7.1Zm-4.4,6.4-3.9-6.8,3.6-6.7,3.9,6.7Zm4.4-7.4L117,28.9l7.8-.2,3.9,6.7Zm-4.4,15.7a7.81,7.81,0,0,1-6.6-3.8l-4.3-7.5a7.48,7.48,0,0,1-1-3.2h7l4.4,7.6a.4.4,0,0,0,.4.2l8.6-.1,3.5,6a7.73,7.73,0,0,1-3.4.8Zm19.5-11.3-4.3,7.5a9.15,9.15,0,0,1-2.3,2.5l-3.4-6,4.2-7.7a.45.45,0,0,0,0-.5l-4.4-7.4.2-.3,3.3-5.7a7.18,7.18,0,0,1,2.4,2.5l4.3,7.5A7.4,7.4,0,0,1,135.9,39.9Z"/><path class="c" d="M136.8,67.7l-4.3-7.5a8.7,8.7,0,0,0-7.4-4.3h-8.7a8.37,8.37,0,0,0-7.4,4.3l-4.3,7.5a8.78,8.78,0,0,0,0,8.6l4.3,7.5a8.7,8.7,0,0,0,7.4,4.3h8.7a8.37,8.37,0,0,0,7.4-4.3l4.3-7.5A8.78,8.78,0,0,0,136.8,67.7Zm-31.3.5,4.3-7.5a7.69,7.69,0,0,1,6.6-3.8h8.7a8,8,0,0,1,3.3.8l-3.1,5.4-.3.6-8.6.2h-.1c-.2,0-.3.1-.4.3h0l-4.1,7.5h-7A4.88,4.88,0,0,1,105.5,68.2Zm15.3,4.3,7.9-.1-3.8,7-7.7.1Zm-4.4,6.3L112.5,72l3.6-6.7L120,72Zm4.4-7.3L117,64.9l7.8-.2,3.9,6.7Zm-4.4,15.6a7.81,7.81,0,0,1-6.6-3.8l-4.3-7.5a7.48,7.48,0,0,1-1-3.2h7l4.4,7.6a.4.4,0,0,0,.4.2l8.6-.1,3.5,6a7.73,7.73,0,0,1-3.4.8Zm19.5-11.3-4.3,7.5a9.15,9.15,0,0,1-2.3,2.5l-3.4-6,4.2-7.7a.45.45,0,0,0,0-.5l-4.4-7.4.2-.3,3.3-5.7a7.18,7.18,0,0,1,2.4,2.5l4.3,7.5A7.4,7.4,0,0,1,135.9,75.8Z"/><path class="c" d="M136.8,103.7l-4.3-7.5a8.7,8.7,0,0,0-7.4-4.3h-8.7a8.37,8.37,0,0,0-7.4,4.3l-4.3,7.5a8.78,8.78,0,0,0,0,8.6l4.3,7.5a8.7,8.7,0,0,0,7.4,4.3h8.7a8.37,8.37,0,0,0,7.4-4.3l4.3-7.5A8.78,8.78,0,0,0,136.8,103.7Zm-31.3.5,4.3-7.5a7.69,7.69,0,0,1,6.6-3.8h8.7a8,8,0,0,1,3.3.8l-3.1,5.4-.3.6-8.6.2h-.1c-.2,0-.3.1-.4.3h0l-4.1,7.5h-7A4.69,4.69,0,0,1,105.5,104.2Zm15.3,4.2,7.9-.1-3.8,7-7.7.1Zm-4.4,6.4-3.9-6.8,3.6-6.7L120,108Zm4.4-7.4-3.8-6.6,7.8-.2,3.9,6.7Zm-4.4,15.7a7.81,7.81,0,0,1-6.6-3.8l-4.3-7.5a7.48,7.48,0,0,1-1-3.2h7l4.4,7.6a.4.4,0,0,0,.4.2l8.6-.1,3.5,6a7.73,7.73,0,0,1-3.4.8Zm19.5-11.3-4.3,7.5a9.15,9.15,0,0,1-2.3,2.5l-3.4-6,4.2-7.7a.45.45,0,0,0,0-.5l-4.4-7.4.2-.3,3.3-5.7a7.18,7.18,0,0,1,2.4,2.5l4.3,7.5A7.4,7.4,0,0,1,135.9,111.8Z"/><path class="c" d="M136.8,139.6l-4.3-7.5a8.7,8.7,0,0,0-7.4-4.3h-8.7a8.37,8.37,0,0,0-7.4,4.3l-4.3,7.5a8.78,8.78,0,0,0,0,8.6l4.3,7.5a8.7,8.7,0,0,0,7.4,4.3h8.7a8.37,8.37,0,0,0,7.4-4.3l4.3-7.5A8.78,8.78,0,0,0,136.8,139.6Zm-31.3.5,4.3-7.5a7.69,7.69,0,0,1,6.6-3.8h8.7a8,8,0,0,1,3.3.8l-3.1,5.4-.3.6-8.6.2h-.1c-.2,0-.3.1-.4.3h0l-4.1,7.5h-7A4.78,4.78,0,0,1,105.5,140.1Zm15.3,4.2,7.9-.1-3.8,7-7.7.1Zm-4.4,6.4-3.9-6.8,3.6-6.7,3.9,6.7Zm4.4-7.4-3.8-6.6,7.8-.2,3.9,6.7ZM116.4,159a7.81,7.81,0,0,1-6.6-3.8l-4.3-7.5a7.48,7.48,0,0,1-1-3.2h7l4.4,7.6a.4.4,0,0,0,.4.2l8.6-.1,3.5,6a7.73,7.73,0,0,1-3.4.8Zm19.5-11.3-4.3,7.5a9.15,9.15,0,0,1-2.3,2.5l-3.4-6,4.2-7.7a.45.45,0,0,0,0-.5l-4.4-7.4.2-.3,3.3-5.7a7.18,7.18,0,0,1,2.4,2.5l4.3,7.5A7.4,7.4,0,0,1,135.9,147.7Z"/><path class="c" d="M136.8,175.6l-4.3-7.5a8.7,8.7,0,0,0-7.4-4.3h-8.7a8.37,8.37,0,0,0-7.4,4.3l-4.3,7.5a8.78,8.78,0,0,0,0,8.6l4.3,7.5a8.7,8.7,0,0,0,7.4,4.3h8.7a8.37,8.37,0,0,0,7.4-4.3l4.3-7.5A8.78,8.78,0,0,0,136.8,175.6Zm-31.3.5,4.3-7.5a7.69,7.69,0,0,1,6.6-3.8h8.7a8,8,0,0,1,3.3.8l-3.1,5.4-.3.6-8.6.2h-.1c-.2,0-.3.1-.4.3h0l-4.1,7.5h-7A4.69,4.69,0,0,1,105.5,176.1Zm15.3,4.2,7.9-.1-3.8,7-7.7.1Zm-4.4,6.4-3.9-6.8,3.6-6.7,3.9,6.7Zm4.4-7.4-3.8-6.6,7.8-.2,3.9,6.7Zm-4.4,15.6a7.81,7.81,0,0,1-6.6-3.8l-4.3-7.5a7.48,7.48,0,0,1-1-3.2h7l4.4,7.6a.4.4,0,0,0,.4.2l8.6-.1,3.5,6a7.73,7.73,0,0,1-3.4.8Zm19.5-11.3-4.3,7.5a9.15,9.15,0,0,1-2.3,2.5l-3.4-6,4.2-7.7a.45.45,0,0,0,0-.5l-4.4-7.4.2-.3,3.3-5.7a7.18,7.18,0,0,1,2.4,2.5l4.3,7.5A7.4,7.4,0,0,1,135.9,183.6Z"/><path class="c" d="M102.3,13.9,98,6.4a8.7,8.7,0,0,0-7.4-4.3H81.9a8.37,8.37,0,0,0-7.4,4.3l-4.3,7.5a8.78,8.78,0,0,0,0,8.6L74.5,30a8.7,8.7,0,0,0,7.4,4.3h8.7A8.37,8.37,0,0,0,98,30l4.3-7.5A8.78,8.78,0,0,0,102.3,13.9ZM71,14.4l4.3-7.5a7.69,7.69,0,0,1,6.6-3.8h8.7a8,8,0,0,1,3.3.8L90.8,9.3l-.3.6-8.8.1h-.1c-.2,0-.3.1-.4.3h0L77,17.7H70A7.9,7.9,0,0,1,71,14.4Zm15.4,4.2,7.9-.1-3.8,7-7.7.1ZM81.9,25,78,18.2l3.6-6.7,3.9,6.7Zm4.4-7.4L82.5,11l7.8-.2,3.9,6.7ZM81.9,33.3a7.81,7.81,0,0,1-6.6-3.8L71,22a7.48,7.48,0,0,1-1-3.2h7l4.4,7.6a.4.4,0,0,0,.4.2l8.6-.1,3.5,6a7.73,7.73,0,0,1-3.4.8ZM101.4,22l-4.3,7.5A9.15,9.15,0,0,1,94.8,32l-3.4-6,4.2-7.7a.45.45,0,0,0,0-.5l-4.4-7.4.2-.3,3.3-5.7a7.18,7.18,0,0,1,2.4,2.5l4.3,7.5A7.4,7.4,0,0,1,101.4,22Z"/><path class="c" d="M102.3,49.8,98,42.3A8.7,8.7,0,0,0,90.6,38H81.9a8.37,8.37,0,0,0-7.4,4.3l-4.3,7.5a8.78,8.78,0,0,0,0,8.6l4.3,7.5a8.7,8.7,0,0,0,7.4,4.3h8.7A8.37,8.37,0,0,0,98,65.9l4.3-7.5A8.78,8.78,0,0,0,102.3,49.8ZM71,50.3l4.3-7.5A7.69,7.69,0,0,1,81.9,39h8.7a8,8,0,0,1,3.3.8l-3.1,5.4-.3.6-8.6.2h-.1c-.2,0-.3.1-.4.3h0L77,53.7H70A8.34,8.34,0,0,1,71,50.3Zm15.4,4.2,7.9-.1-3.8,7-7.7.1Zm-4.5,6.4L78,54.2l3.6-6.7,3.9,6.7Zm4.4-7.4-3.8-6.6,7.8-.2,3.9,6.7ZM81.9,69.2a7.81,7.81,0,0,1-6.6-3.8L71,57.9a7.48,7.48,0,0,1-1-3.2h7l4.4,7.6a.4.4,0,0,0,.4.2l8.6-.1,3.5,6a7.73,7.73,0,0,1-3.4.8Zm19.5-11.3-4.3,7.5a9.15,9.15,0,0,1-2.3,2.5l-3.4-6,4.2-7.7a.45.45,0,0,0,0-.5l-4.4-7.4.2-.3,3.3-5.7a7.18,7.18,0,0,1,2.4,2.5l4.3,7.5A7.4,7.4,0,0,1,101.4,57.9Z"/><path class="c" d="M102.3,85.8,98,78.3A8.7,8.7,0,0,0,90.6,74H81.9a8.37,8.37,0,0,0-7.4,4.3l-4.3,7.5a8.78,8.78,0,0,0,0,8.6l4.3,7.5a8.7,8.7,0,0,0,7.4,4.3h8.7a8.37,8.37,0,0,0,7.4-4.3l4.3-7.5A8.78,8.78,0,0,0,102.3,85.8ZM71,86.3l4.3-7.5A7.69,7.69,0,0,1,81.9,75h8.7a8,8,0,0,1,3.3.8l-3.1,5.4-.3.6-8.6.2h-.1c-.2,0-.3.1-.4.3h0L77,89.6H70A7.9,7.9,0,0,1,71,86.3Zm15.4,4.2,7.9-.1-3.8,7-7.7.1Zm-4.5,6.4L78,90.1l3.6-6.7,3.9,6.7Zm4.4-7.4-3.8-6.6,7.8-.2,3.9,6.7Zm-4.4,15.6a7.81,7.81,0,0,1-6.6-3.8L71,93.9a7.48,7.48,0,0,1-1-3.2h7l4.4,7.6a.4.4,0,0,0,.4.2l8.6-.1,3.5,6a7.73,7.73,0,0,1-3.4.8H81.9Zm19.5-11.2-4.3,7.5a9.15,9.15,0,0,1-2.3,2.5l-3.4-6,4.2-7.7a.45.45,0,0,0,0-.5l-4.4-7.4.2-.3,3.3-5.7a7.18,7.18,0,0,1,2.4,2.5l4.3,7.5A7.4,7.4,0,0,1,101.4,93.9Z"/><path class="c" d="M102.3,121.7,98,114.2a8.7,8.7,0,0,0-7.4-4.3H81.9a8.37,8.37,0,0,0-7.4,4.3l-4.3,7.5a8.78,8.78,0,0,0,0,8.6l4.3,7.5a8.7,8.7,0,0,0,7.4,4.3h8.7a8.37,8.37,0,0,0,7.4-4.3l4.3-7.5A8.78,8.78,0,0,0,102.3,121.7Zm-31.3.5,4.3-7.5a7.69,7.69,0,0,1,6.6-3.8h8.7a8,8,0,0,1,3.3.8l-3.1,5.4-.3.6-8.6.2h-.1c-.2,0-.3.1-.4.3h0l-4.1,7.5h-7A5.31,5.31,0,0,1,71,122.2Zm15.4,4.2,7.9-.1-3.8,7-7.7.1Zm-4.5,6.4L78,126l3.6-6.7,3.9,6.7Zm4.4-7.4-3.8-6.6,7.8-.2,3.9,6.7Zm-4.4,15.7a7.81,7.81,0,0,1-6.6-3.8L71,129.8a7.48,7.48,0,0,1-1-3.2h7l4.4,7.6a.4.4,0,0,0,.4.2l8.6-.1,3.5,6a7.73,7.73,0,0,1-3.4.8Zm19.5-11.3-4.3,7.5a9.15,9.15,0,0,1-2.3,2.5l-3.4-6,4.2-7.7a.45.45,0,0,0,0-.5l-4.4-7.4.2-.3,3.3-5.7a7.18,7.18,0,0,1,2.4,2.5l4.3,7.5A7.4,7.4,0,0,1,101.4,129.8Z"/><path class="c" d="M102.3,157.7,98,150.2a8.7,8.7,0,0,0-7.4-4.3H81.9a8.37,8.37,0,0,0-7.4,4.3l-4.3,7.5a8.78,8.78,0,0,0,0,8.6l4.3,7.5a8.7,8.7,0,0,0,7.4,4.3h8.7a8.37,8.37,0,0,0,7.4-4.3l4.3-7.5A8.78,8.78,0,0,0,102.3,157.7Zm-31.3.5,4.3-7.5a7.69,7.69,0,0,1,6.6-3.8h8.7a8,8,0,0,1,3.3.8l-3.1,5.4-.3.6-8.6.2h-.1c-.2,0-.3.1-.4.3h0l-4.1,7.5h-7A5.19,5.19,0,0,1,71,158.2Zm15.4,4.2,7.9-.1-3.8,7-7.7.1Zm-4.5,6.4L78,162l3.6-6.7,3.9,6.7Zm4.4-7.4-3.8-6.6,7.8-.2,3.9,6.7ZM81.9,177a7.81,7.81,0,0,1-6.6-3.8L71,165.7a7.48,7.48,0,0,1-1-3.2h7l4.4,7.6a.4.4,0,0,0,.4.2l8.6-.1,3.5,6a7.73,7.73,0,0,1-3.4.8Zm19.5-11.3-4.3,7.5a9.15,9.15,0,0,1-2.3,2.5l-3.4-6,4.2-7.7a.45.45,0,0,0,0-.5l-4.4-7.4.2-.3,3.3-5.7a7.18,7.18,0,0,1,2.4,2.5l4.3,7.5A7.4,7.4,0,0,1,101.4,165.7Z"/><path class="c" d="M205.8-4.1l-4.3-7.5a8.7,8.7,0,0,0-7.4-4.3h-8.7a8.37,8.37,0,0,0-7.4,4.3l-4.3,7.5a8.78,8.78,0,0,0,0,8.6L178,12a8.7,8.7,0,0,0,7.4,4.3h8.7a8.37,8.37,0,0,0,7.4-4.3l4.3-7.5A8.78,8.78,0,0,0,205.8-4.1Zm-31.4.5,4.3-7.5a7.69,7.69,0,0,1,6.6-3.8H194a8,8,0,0,1,3.3.8l-3.1,5.4-.3.6-8.8.1H185c-.2,0-.3.1-.4.3h0L180.5-.2h-7A6.65,6.65,0,0,1,174.4-3.6ZM189.8.6l7.9-.1-3.8,7-7.7.1ZM185.3,7,181.4.2,185-6.5,188.9.2Zm4.4-7.4L185.9-7l7.8-.2,3.9,6.7Zm-4.4,15.6a7.81,7.81,0,0,1-6.6-3.8l-4.3-7.5a7.48,7.48,0,0,1-1-3.2h7l4.4,7.6a.4.4,0,0,0,.4.2l8.6-.1,3.5,6a7.73,7.73,0,0,1-3.4.8ZM204.9,3.9l-4.3,7.5a9.15,9.15,0,0,1-2.3,2.5l-3.4-6L199.1.2a.45.45,0,0,0,0-.5l-4.4-7.4.2-.3,3.3-5.7a7.18,7.18,0,0,1,2.4,2.5l4.3,7.5A7.89,7.89,0,0,1,204.9,3.9Z"/><path class="c" d="M205.8,31.8l-4.3-7.5a8.7,8.7,0,0,0-7.4-4.3h-8.7a8.37,8.37,0,0,0-7.4,4.3l-4.3,7.5a8.78,8.78,0,0,0,0,8.6l4.3,7.5a8.7,8.7,0,0,0,7.4,4.3h8.7a8.37,8.37,0,0,0,7.4-4.3l4.3-7.5A8.78,8.78,0,0,0,205.8,31.8Zm-31.4.5,4.3-7.5a7.69,7.69,0,0,1,6.6-3.8H194a8,8,0,0,1,3.3.8l-3.1,5.4-.3.6-8.6.2h-.1c-.2,0-.3.1-.4.3h0l-4.1,7.5h-7A5.19,5.19,0,0,1,174.4,32.3Zm15.4,4.2,7.9-.1-3.8,7-7.7.1Zm-4.5,6.4-3.9-6.8,3.6-6.7,3.9,6.7Zm4.4-7.4-3.8-6.6,7.8-.2,3.9,6.7Zm-4.4,15.7a7.81,7.81,0,0,1-6.6-3.8l-4.3-7.5a7.48,7.48,0,0,1-1-3.2h7l4.4,7.6a.4.4,0,0,0,.4.2l8.6-.1,3.5,6a7.73,7.73,0,0,1-3.4.8Zm19.6-11.3-4.3,7.5a9.15,9.15,0,0,1-2.3,2.5l-3.4-6,4.2-7.7a.45.45,0,0,0,0-.5l-4.4-7.4.2-.3,3.3-5.7a7.18,7.18,0,0,1,2.4,2.5l4.3,7.5A7.89,7.89,0,0,1,204.9,39.9Z"/><path class="c" d="M205.8,67.7l-4.3-7.5a8.7,8.7,0,0,0-7.4-4.3h-8.7a8.37,8.37,0,0,0-7.4,4.3l-4.3,7.5a8.78,8.78,0,0,0,0,8.6l4.3,7.5a8.7,8.7,0,0,0,7.4,4.3h8.7a8.37,8.37,0,0,0,7.4-4.3l4.3-7.5A8.78,8.78,0,0,0,205.8,67.7Zm-31.4.5,4.3-7.5a7.69,7.69,0,0,1,6.6-3.8H194a8,8,0,0,1,3.3.8l-3.1,5.4-.3.6-8.6.2h-.1c-.2,0-.3.1-.4.3h0l-4.1,7.5h-7A5.43,5.43,0,0,1,174.4,68.2Zm15.4,4.3,7.9-.1-3.8,7-7.7.1Zm-4.5,6.3L181.4,72l3.6-6.7,3.9,6.7Zm4.4-7.3-3.8-6.6,7.8-.2,3.9,6.7Zm-4.4,15.6a7.81,7.81,0,0,1-6.6-3.8l-4.3-7.5a7.48,7.48,0,0,1-1-3.2h7l4.4,7.6a.4.4,0,0,0,.4.2l8.6-.1,3.5,6a7.73,7.73,0,0,1-3.4.8Zm19.6-11.3-4.3,7.5a9.15,9.15,0,0,1-2.3,2.5l-3.4-6,4.2-7.7a.45.45,0,0,0,0-.5l-4.4-7.4.2-.3,3.3-5.7a7.18,7.18,0,0,1,2.4,2.5l4.3,7.5A7.89,7.89,0,0,1,204.9,75.8Z"/><path class="c" d="M205.8,103.7l-4.3-7.5a8.7,8.7,0,0,0-7.4-4.3h-8.7a8.37,8.37,0,0,0-7.4,4.3l-4.3,7.5a8.78,8.78,0,0,0,0,8.6l4.3,7.5a8.7,8.7,0,0,0,7.4,4.3h8.7a8.37,8.37,0,0,0,7.4-4.3l4.3-7.5A8.78,8.78,0,0,0,205.8,103.7Zm-31.4.5,4.3-7.5a7.69,7.69,0,0,1,6.6-3.8H194a8,8,0,0,1,3.3.8l-3.1,5.4-.3.6-8.6.2h-.1c-.2,0-.3.1-.4.3h0l-4.1,7.5h-7A5.19,5.19,0,0,1,174.4,104.2Zm15.4,4.2,7.9-.1-3.8,7-7.7.1Zm-4.5,6.4-3.9-6.8,3.6-6.7,3.9,6.7Zm4.4-7.4-3.8-6.6,7.8-.2,3.9,6.7Zm-4.4,15.7a7.81,7.81,0,0,1-6.6-3.8l-4.3-7.5a7.48,7.48,0,0,1-1-3.2h7l4.4,7.6a.4.4,0,0,0,.4.2l8.6-.1,3.5,6a7.73,7.73,0,0,1-3.4.8Zm19.6-11.3-4.3,7.5a9.15,9.15,0,0,1-2.3,2.5l-3.4-6,4.2-7.7a.45.45,0,0,0,0-.5l-4.4-7.4.2-.3,3.3-5.7a7.18,7.18,0,0,1,2.4,2.5l4.3,7.5A7.89,7.89,0,0,1,204.9,111.8Z"/><path class="c" d="M205.8,139.6l-4.3-7.5a8.7,8.7,0,0,0-7.4-4.3h-8.7a8.37,8.37,0,0,0-7.4,4.3l-4.3,7.5a8.78,8.78,0,0,0,0,8.6l4.3,7.5a8.7,8.7,0,0,0,7.4,4.3h8.7a8.37,8.37,0,0,0,7.4-4.3l4.3-7.5A8.78,8.78,0,0,0,205.8,139.6Zm-31.4.5,4.3-7.5a7.69,7.69,0,0,1,6.6-3.8H194a8,8,0,0,1,3.3.8l-3.1,5.4-.3.6-8.6.2h-.1c-.2,0-.3.1-.4.3h0l-4.1,7.5h-7A5.31,5.31,0,0,1,174.4,140.1Zm15.4,4.2,7.9-.1-3.8,7-7.7.1Zm-4.5,6.4-3.9-6.8,3.6-6.7,3.9,6.7Zm4.4-7.4-3.8-6.6,7.8-.2,3.9,6.7ZM185.3,159a7.81,7.81,0,0,1-6.6-3.8l-4.3-7.5a7.48,7.48,0,0,1-1-3.2h7l4.4,7.6a.4.4,0,0,0,.4.2l8.6-.1,3.5,6a7.73,7.73,0,0,1-3.4.8Zm19.6-11.3-4.3,7.5a9.15,9.15,0,0,1-2.3,2.5l-3.4-6,4.2-7.7a.45.45,0,0,0,0-.5l-4.4-7.4.2-.3,3.3-5.7a7.18,7.18,0,0,1,2.4,2.5l4.3,7.5A7.89,7.89,0,0,1,204.9,147.7Z"/><path class="c" d="M205.8,175.6l-4.3-7.5a8.7,8.7,0,0,0-7.4-4.3h-8.7a8.37,8.37,0,0,0-7.4,4.3l-4.3,7.5a8.78,8.78,0,0,0,0,8.6l4.3,7.5a8.7,8.7,0,0,0,7.4,4.3h8.7a8.37,8.37,0,0,0,7.4-4.3l4.3-7.5A8.78,8.78,0,0,0,205.8,175.6Zm-31.4.5,4.3-7.5a7.69,7.69,0,0,1,6.6-3.8H194a8,8,0,0,1,3.3.8l-3.1,5.4-.3.6-8.6.2h-.1c-.2,0-.3.1-.4.3h0l-4.1,7.5h-7A5.19,5.19,0,0,1,174.4,176.1Zm15.4,4.2,7.9-.1-3.8,7-7.7.1Zm-4.5,6.4-3.9-6.8,3.6-6.7,3.9,6.7Zm4.4-7.4-3.8-6.6,7.8-.2,3.9,6.7Zm-4.4,15.6a7.81,7.81,0,0,1-6.6-3.8l-4.3-7.5a7.48,7.48,0,0,1-1-3.2h7l4.4,7.6a.4.4,0,0,0,.4.2l8.6-.1,3.5,6a7.73,7.73,0,0,1-3.4.8Zm19.6-11.3-4.3,7.5a9.15,9.15,0,0,1-2.3,2.5l-3.4-6,4.2-7.7a.45.45,0,0,0,0-.5l-4.4-7.4.2-.3,3.3-5.7a7.18,7.18,0,0,1,2.4,2.5l4.3,7.5A7.89,7.89,0,0,1,204.9,183.6Z"/><path class="c" d="M171.3,13.9,167,6.4a8.7,8.7,0,0,0-7.4-4.3h-8.7a8.37,8.37,0,0,0-7.4,4.3l-4.3,7.5a8.78,8.78,0,0,0,0,8.6l4.3,7.5a8.7,8.7,0,0,0,7.4,4.3h8.7A8.37,8.37,0,0,0,167,30l4.3-7.5A8.78,8.78,0,0,0,171.3,13.9Zm-31.4.5,4.3-7.5a7.69,7.69,0,0,1,6.6-3.8h8.7a8,8,0,0,1,3.3.8l-3.1,5.4-.3.6-8.6.2h-.1c-.2,0-.3.1-.4.3h0l-4.1,7.5h-7A5.19,5.19,0,0,1,139.9,14.4Zm15.4,4.2,7.9-.1-3.8,7-7.7.1ZM150.8,25l-3.9-6.8,3.6-6.7,3.9,6.7Zm4.5-7.4L151.5,11l7.8-.2,3.9,6.7Zm-4.5,15.7a7.81,7.81,0,0,1-6.6-3.8L139.9,22a7.48,7.48,0,0,1-1-3.2h7l4.4,7.6a.4.4,0,0,0,.4.2l8.6-.1,3.5,6a7.73,7.73,0,0,1-3.4.8ZM170.4,22l-4.3,7.5a9.15,9.15,0,0,1-2.3,2.5l-3.4-6,4.2-7.7a.45.45,0,0,0,0-.5l-4.4-7.4.2-.3,3.3-5.7a7.18,7.18,0,0,1,2.4,2.5l4.3,7.5A7.4,7.4,0,0,1,170.4,22Z"/><path class="c" d="M171.3,49.8,167,42.3a8.7,8.7,0,0,0-7.4-4.3h-8.7a8.37,8.37,0,0,0-7.4,4.3l-4.3,7.5a8.78,8.78,0,0,0,0,8.6l4.3,7.5a8.7,8.7,0,0,0,7.4,4.3h8.7a8.37,8.37,0,0,0,7.4-4.3l4.3-7.5A8.78,8.78,0,0,0,171.3,49.8Zm-31.4.5,4.3-7.5a7.69,7.69,0,0,1,6.6-3.8h8.7a8,8,0,0,1,3.3.8l-3.1,5.4-.3.6-8.6.2h-.1c-.2,0-.3.1-.4.3h0l-4.1,7.5h-7A5.31,5.31,0,0,1,139.9,50.3Zm15.4,4.2,7.9-.1-3.8,7-7.7.1Zm-4.5,6.4-3.9-6.8,3.6-6.7,3.9,6.7Zm4.5-7.4-3.8-6.6,7.8-.2,3.9,6.7Zm-4.5,15.7a7.81,7.81,0,0,1-6.6-3.8l-4.3-7.5a7.48,7.48,0,0,1-1-3.2h7l4.4,7.6a.4.4,0,0,0,.4.2l8.6-.1,3.5,6a7.73,7.73,0,0,1-3.4.8Zm19.6-11.3-4.3,7.5a9.15,9.15,0,0,1-2.3,2.5l-3.4-6,4.2-7.7a.45.45,0,0,0,0-.5l-4.4-7.4.2-.3,3.3-5.7a7.18,7.18,0,0,1,2.4,2.5l4.3,7.5A7.4,7.4,0,0,1,170.4,57.9Z"/><path class="c" d="M171.3,85.8,167,78.3a8.7,8.7,0,0,0-7.4-4.3h-8.7a8.37,8.37,0,0,0-7.4,4.3l-4.3,7.5a8.78,8.78,0,0,0,0,8.6l4.3,7.5a8.7,8.7,0,0,0,7.4,4.3h8.7a8.37,8.37,0,0,0,7.4-4.3l4.3-7.5A8.78,8.78,0,0,0,171.3,85.8Zm-31.4.5,4.3-7.5a7.69,7.69,0,0,1,6.6-3.8h8.7a8,8,0,0,1,3.3.8l-3.1,5.4-.3.6-8.6.2h-.1c-.2,0-.3.1-.4.3h0l-4.1,7.5h-7A5.19,5.19,0,0,1,139.9,86.3Zm15.4,4.2,7.9-.1-3.8,7-7.7.1Zm-4.5,6.4-3.9-6.8,3.6-6.7,3.9,6.7Zm4.5-7.4-3.8-6.6,7.8-.2,3.9,6.7Zm-4.5,15.6a7.81,7.81,0,0,1-6.6-3.8l-4.3-7.5a7.48,7.48,0,0,1-1-3.2h7l4.4,7.6a.4.4,0,0,0,.4.2l8.6-.1,3.5,6a7.73,7.73,0,0,1-3.4.8Zm19.6-11.2-4.3,7.5a9.15,9.15,0,0,1-2.3,2.5l-3.4-6,4.2-7.7a.45.45,0,0,0,0-.5l-4.4-7.4.2-.3,3.3-5.7a7.18,7.18,0,0,1,2.4,2.5l4.3,7.5A7.4,7.4,0,0,1,170.4,93.9Z"/><path class="c" d="M171.3,121.7l-4.3-7.5a8.7,8.7,0,0,0-7.4-4.3h-8.7a8.37,8.37,0,0,0-7.4,4.3l-4.3,7.5a8.78,8.78,0,0,0,0,8.6l4.3,7.5a8.7,8.7,0,0,0,7.4,4.3h8.7a8.37,8.37,0,0,0,7.4-4.3l4.3-7.5A8.78,8.78,0,0,0,171.3,121.7Zm-31.4.5,4.3-7.5a7.69,7.69,0,0,1,6.6-3.8h8.7a8,8,0,0,1,3.3.8l-3.1,5.4-.3.6-8.6.2h-.1c-.2,0-.3.1-.4.3h0l-4.1,7.5h-7A5.31,5.31,0,0,1,139.9,122.2Zm15.4,4.2,7.9-.1-3.8,7-7.7.1Zm-4.5,6.4-3.9-6.8,3.6-6.7,3.9,6.7Zm4.5-7.4-3.8-6.6,7.8-.2,3.9,6.7Zm-4.5,15.7a7.81,7.81,0,0,1-6.6-3.8l-4.3-7.5a7.48,7.48,0,0,1-1-3.2h7l4.4,7.6a.4.4,0,0,0,.4.2l8.6-.1,3.5,6a7.73,7.73,0,0,1-3.4.8Zm19.6-11.3-4.3,7.5a9.15,9.15,0,0,1-2.3,2.5l-3.4-6,4.2-7.7a.45.45,0,0,0,0-.5l-4.4-7.4.2-.3,3.3-5.7a7.18,7.18,0,0,1,2.4,2.5l4.3,7.5A7.4,7.4,0,0,1,170.4,129.8Z"/><path class="c" d="M171.3,157.7l-4.3-7.5a8.7,8.7,0,0,0-7.4-4.3h-8.7a8.37,8.37,0,0,0-7.4,4.3l-4.3,7.5a8.78,8.78,0,0,0,0,8.6l4.3,7.5a8.7,8.7,0,0,0,7.4,4.3h8.7a8.37,8.37,0,0,0,7.4-4.3l4.3-7.5A8.78,8.78,0,0,0,171.3,157.7Zm-31.4.5,4.3-7.5a7.69,7.69,0,0,1,6.6-3.8h8.7a8,8,0,0,1,3.3.8l-3.1,5.4-.3.6-8.6.2h-.1c-.2,0-.3.1-.4.3h0l-4.1,7.5h-7A5.19,5.19,0,0,1,139.9,158.2Zm15.4,4.2,7.9-.1-3.8,7-7.7.1Zm-4.5,6.4-3.9-6.8,3.6-6.7,3.9,6.7Zm4.5-7.4-3.8-6.6,7.8-.2,3.9,6.7ZM150.8,177a7.81,7.81,0,0,1-6.6-3.8l-4.3-7.5a7.48,7.48,0,0,1-1-3.2h7l4.4,7.6a.4.4,0,0,0,.4.2l8.6-.1,3.5,6a7.73,7.73,0,0,1-3.4.8Zm19.6-11.3-4.3,7.5a9.15,9.15,0,0,1-2.3,2.5l-3.4-6,4.2-7.7a.45.45,0,0,0,0-.5l-4.4-7.4.2-.3,3.3-5.7a7.18,7.18,0,0,1,2.4,2.5l4.3,7.5A7.4,7.4,0,0,1,170.4,165.7Z"/></g></svg>