<?xml version="1.0" encoding="utf-8"?>
<!-- Generator: Adobe Illustrator 22.1.0, SVG Export Plug-In . SVG Version: 6.00 Build 0)  -->
<svg version="1.1" xmlns="http://www.w3.org/2000/svg" xmlns:xlink="http://www.w3.org/1999/xlink" x="0px" y="0px"
	 viewBox="0 0 206.9 180" style="enable-background:new 0 0 206.9 180;" xml:space="preserve">
<style type="text/css">
	.st0{fill:#06BFB2;}
	.st1{opacity:0.4;}
	.st2{fill:#00F7B0;}
</style>
<g id="Layer_1">
	<rect class="st0" width="206.9" height="180"/>
</g>
<g id="Layer_2" class="st1">
	<path class="st2" d="M67.8-4.1l-4.3-7.5c-1.5-2.6-4.4-4.3-7.4-4.3h-8.7c-3.1,0-5.9,1.6-7.4,4.3l-4.3,7.5c-1.5,2.6-1.5,5.9,0,8.6
		l4.3,7.5c1.5,2.6,4.4,4.3,7.4,4.3h8.7c3.1,0,5.9-1.6,7.4-4.3l4.3-7.5C69.3,1.8,69.3-1.5,67.8-4.1z M36.5-3.6l4.3-7.5
		c1.3-2.3,3.9-3.8,6.6-3.8h8.7c1.1,0,2.2,0.3,3.3,0.8l-3.1,5.4l-0.3,0.6L47.2-8c0,0-0.1,0-0.1,0c0,0,0,0,0,0c-0.2,0-0.3,0.1-0.4,0.3
		l0,0c0,0,0,0,0,0l-4.1,7.5l-3.8,0l-3.2,0C35.6-1.4,35.9-2.6,36.5-3.6z M51.9,0.6l7.9-0.1l-3.8,7l-7.7,0.1L51.9,0.6z M47.4,7
		l-3.9-6.8l3.6-6.7L51,0.1L47.4,7z M51.8-0.4L48-7.1l7.8-0.2l3.9,6.7L51.8-0.4z M47.4,15.2c-2.7,0-5.2-1.5-6.6-3.8l-4.3-7.5
		c-0.6-1-0.9-2.1-1-3.2l2.9,0l4.1,0l4.4,7.6c0.1,0.2,0.3,0.2,0.4,0.2L56,8.4l3.5,6c-1,0.5-2.2,0.8-3.4,0.8H47.4z M67,3.9l-4.3,7.5
		c-0.6,1-1.4,1.8-2.3,2.5l-3.4-6l4.2-7.7c0.1-0.2,0.1-0.3,0-0.5l-4.4-7.4L56.9-8l3.3-5.7c1,0.6,1.8,1.5,2.4,2.5L67-3.6
		C68.3-1.3,68.3,1.6,67,3.9z"/>
	<path class="st2" d="M67.8,31.8l-4.3-7.5C62,21.6,59.1,20,56.1,20h-8.7c-3.1,0-5.9,1.6-7.4,4.3l-4.3,7.5c-1.5,2.6-1.5,5.9,0,8.6
		l4.3,7.5c1.5,2.6,4.4,4.3,7.4,4.3h8.7c3.1,0,5.9-1.6,7.4-4.3l4.3-7.5C69.3,37.7,69.3,34.4,67.8,31.8z M36.5,32.3l4.3-7.5
		c1.3-2.3,3.9-3.8,6.6-3.8h8.7c1.1,0,2.2,0.3,3.3,0.8l-3.1,5.4l-0.3,0.6l-8.6,0.2c0,0-0.1,0-0.1,0c0,0,0,0,0,0
		c-0.2,0-0.3,0.1-0.4,0.3l0,0c0,0,0,0,0,0l-4.1,7.5l-3.8,0l-3.2,0C35.6,34.5,35.9,33.3,36.5,32.3z M51.9,36.5l7.9-0.1l-3.8,7
		l-7.7,0.1L51.9,36.5z M47.4,42.9l-3.9-6.8l3.6-6.7l3.9,6.7L47.4,42.9z M51.8,35.5L48,28.9l7.8-0.2l3.9,6.7L51.8,35.5z M47.4,51.2
		c-2.7,0-5.2-1.5-6.6-3.8l-4.3-7.5c-0.6-1-0.9-2.1-1-3.2l2.9,0l4.1,0l4.4,7.6c0.1,0.2,0.3,0.2,0.4,0.2l8.6-0.1l3.5,6
		c-1,0.5-2.2,0.8-3.4,0.8H47.4z M67,39.9l-4.3,7.5c-0.6,1-1.4,1.8-2.3,2.5l-3.4-6l4.2-7.7c0.1-0.2,0.1-0.3,0-0.5l-4.4-7.4l0.2-0.3
		l3.3-5.7c1,0.6,1.8,1.5,2.4,2.5l4.3,7.5C68.3,34.6,68.3,37.5,67,39.9z"/>
	<path class="st2" d="M67.8,67.7l-4.3-7.5c-1.5-2.6-4.4-4.3-7.4-4.3h-8.7c-3.1,0-5.9,1.6-7.4,4.3l-4.3,7.5c-1.5,2.6-1.5,5.9,0,8.6
		l4.3,7.5c1.5,2.6,4.4,4.3,7.4,4.3h8.7c3.1,0,5.9-1.6,7.4-4.3l4.3-7.5C69.3,73.7,69.3,70.4,67.8,67.7z M36.5,68.2l4.3-7.5
		c1.3-2.3,3.9-3.8,6.6-3.8h8.7c1.1,0,2.2,0.3,3.3,0.8l-3.1,5.4l-0.3,0.6l-8.6,0.2c0,0-0.1,0-0.1,0c0,0,0,0,0,0
		c-0.2,0-0.3,0.1-0.4,0.3l0,0c0,0,0,0,0,0l-4.1,7.5l-3.8,0l-3.2,0C35.6,70.5,35.9,69.3,36.5,68.2z M51.9,72.5l7.9-0.1l-3.8,7
		l-7.7,0.1L51.9,72.5z M47.4,78.8l-3.9-6.8l3.6-6.7L51,72L47.4,78.8z M51.8,71.5L48,64.8l7.8-0.2l3.9,6.7L51.8,71.5z M47.4,87.1
		c-2.7,0-5.2-1.5-6.6-3.8l-4.3-7.5c-0.6-1-0.9-2.1-1-3.2l2.9,0l4.1,0l4.4,7.6c0.1,0.2,0.3,0.2,0.4,0.2l8.6-0.1l3.5,6
		c-1,0.5-2.2,0.8-3.4,0.8H47.4z M67,75.8l-4.3,7.5c-0.6,1-1.4,1.8-2.3,2.5l-3.4-6l4.2-7.7c0.1-0.2,0.1-0.3,0-0.5l-4.4-7.4l0.2-0.3
		l3.3-5.7c1,0.6,1.8,1.5,2.4,2.5l4.3,7.5C68.3,70.6,68.3,73.5,67,75.8z"/>
	<path class="st2" d="M67.8,103.7l-4.3-7.5c-1.5-2.6-4.4-4.3-7.4-4.3h-8.7c-3.1,0-5.9,1.6-7.4,4.3l-4.3,7.5c-1.5,2.6-1.5,5.9,0,8.6
		l4.3,7.5c1.5,2.6,4.4,4.3,7.4,4.3h8.7c3.1,0,5.9-1.6,7.4-4.3l4.3-7.5C69.3,109.6,69.3,106.3,67.8,103.7z M36.5,104.2l4.3-7.5
		c1.3-2.3,3.9-3.8,6.6-3.8h8.7c1.1,0,2.2,0.3,3.3,0.8L56.2,99l-0.3,0.6l-8.6,0.2c0,0-0.1,0-0.1,0c0,0,0,0,0,0
		c-0.2,0-0.3,0.1-0.4,0.3l0,0c0,0,0,0,0,0l-4.1,7.5l-3.8,0l-3.2,0C35.6,106.4,35.9,105.2,36.5,104.2z M51.9,108.4l7.9-0.1l-3.8,7
		l-7.7,0.1L51.9,108.4z M47.4,114.8l-3.9-6.8l3.6-6.7L51,108L47.4,114.8z M51.8,107.4l-3.8-6.6l7.8-0.2l3.9,6.7L51.8,107.4z
		 M47.4,123.1c-2.7,0-5.2-1.5-6.6-3.8l-4.3-7.5c-0.6-1-0.9-2.1-1-3.2l2.9,0l4.1,0l4.4,7.6c0.1,0.2,0.3,0.2,0.4,0.2l8.6-0.1l3.5,6
		c-1,0.5-2.2,0.8-3.4,0.8H47.4z M67,111.8l-4.3,7.5c-0.6,1-1.4,1.8-2.3,2.5l-3.4-6l4.2-7.7c0.1-0.2,0.1-0.3,0-0.5l-4.4-7.4l0.2-0.3
		l3.3-5.7c1,0.6,1.8,1.5,2.4,2.5l4.3,7.5C68.3,106.5,68.3,109.4,67,111.8z"/>
	<path class="st2" d="M67.8,139.6l-4.3-7.5c-1.5-2.6-4.4-4.3-7.4-4.3h-8.7c-3.1,0-5.9,1.6-7.4,4.3l-4.3,7.5c-1.5,2.6-1.5,5.9,0,8.6
		l4.3,7.5c1.5,2.6,4.4,4.3,7.4,4.3h8.7c3.1,0,5.9-1.6,7.4-4.3l4.3-7.5C69.3,145.6,69.3,142.3,67.8,139.6z M36.5,140.1l4.3-7.5
		c1.3-2.3,3.9-3.8,6.6-3.8h8.7c1.1,0,2.2,0.3,3.3,0.8l-3.1,5.4l-0.3,0.6l-8.6,0.2c0,0-0.1,0-0.1,0c0,0,0,0,0,0
		c-0.2,0-0.3,0.1-0.4,0.3l0,0c0,0,0,0,0,0l-4.1,7.5l-3.8,0l-3.2,0C35.6,142.3,35.9,141.2,36.5,140.1z M51.9,144.3l7.9-0.1l-3.8,7
		l-7.7,0.1L51.9,144.3z M47.4,150.7l-3.9-6.8l3.6-6.7l3.9,6.7L47.4,150.7z M51.8,143.3l-3.8-6.6l7.8-0.2l3.9,6.7L51.8,143.3z
		 M47.4,159c-2.7,0-5.2-1.5-6.6-3.8l-4.3-7.5c-0.6-1-0.9-2.1-1-3.2l2.9,0l4.1,0l4.4,7.6c0.1,0.2,0.3,0.2,0.4,0.2l8.6-0.1l3.5,6
		c-1,0.5-2.2,0.8-3.4,0.8H47.4z M67,147.7l-4.3,7.5c-0.6,1-1.4,1.8-2.3,2.5l-3.4-6l4.2-7.7c0.1-0.2,0.1-0.3,0-0.5l-4.4-7.4l0.2-0.3
		l3.3-5.7c1,0.6,1.8,1.5,2.4,2.5l4.3,7.5C68.3,142.5,68.3,145.4,67,147.7z"/>
	<path class="st2" d="M67.8,175.6l-4.3-7.5c-1.5-2.6-4.4-4.3-7.4-4.3h-8.7c-3.1,0-5.9,1.6-7.4,4.3l-4.3,7.5c-1.5,2.6-1.5,5.9,0,8.6
		l4.3,7.5c1.5,2.6,4.4,4.3,7.4,4.3h8.7c3.1,0,5.9-1.6,7.4-4.3l4.3-7.5C69.3,181.5,69.3,178.2,67.8,175.6z M36.5,176.1l4.3-7.5
		c1.3-2.3,3.9-3.8,6.6-3.8h8.7c1.1,0,2.2,0.3,3.3,0.8l-3.1,5.4l-0.3,0.6l-8.6,0.2c0,0-0.1,0-0.1,0c0,0,0,0,0,0
		c-0.2,0-0.3,0.1-0.4,0.3l0,0c0,0,0,0,0,0l-4.1,7.5l-3.8,0l-3.2,0C35.6,178.3,35.9,177.1,36.5,176.1z M51.9,180.3l7.9-0.1l-3.8,7
		l-7.7,0.1L51.9,180.3z M47.4,186.7l-3.9-6.8l3.6-6.7l3.9,6.7L47.4,186.7z M51.8,179.3l-3.8-6.6l7.8-0.2l3.9,6.7L51.8,179.3z
		 M47.4,194.9c-2.7,0-5.2-1.5-6.6-3.8l-4.3-7.5c-0.6-1-0.9-2.1-1-3.2l2.9,0l4.1,0l4.4,7.6c0.1,0.2,0.3,0.2,0.4,0.2l8.6-0.1l3.5,6
		c-1,0.5-2.2,0.8-3.4,0.8H47.4z M67,183.6l-4.3,7.5c-0.6,1-1.4,1.8-2.3,2.5l-3.4-6l4.2-7.7c0.1-0.2,0.1-0.3,0-0.5l-4.4-7.4l0.2-0.3
		l3.3-5.7c1,0.6,1.8,1.5,2.4,2.5l4.3,7.5C68.3,178.4,68.3,181.3,67,183.6z"/>
	<path class="st2" d="M33.3,13.9L29,6.4c-1.5-2.6-4.4-4.3-7.4-4.3h-8.7C9.9,2.1,7,3.7,5.5,6.4l-4.3,7.5c-1.5,2.6-1.5,5.9,0,8.6
		L5.5,30c1.5,2.6,4.4,4.3,7.4,4.3h8.7c3.1,0,5.9-1.6,7.4-4.3l4.3-7.5C34.9,19.8,34.9,16.5,33.3,13.9z M2,14.4l4.3-7.5
		c1.3-2.3,3.9-3.8,6.6-3.8h8.7c1.1,0,2.2,0.3,3.3,0.8l-3.1,5.4l-0.3,0.6L12.7,10c0,0-0.1,0-0.1,0c0,0,0,0,0,0
		c-0.2,0-0.3,0.1-0.4,0.3l0,0c0,0,0,0,0,0l-4.1,7.5l-3.8,0l-3.2,0C1.1,16.6,1.4,15.4,2,14.4z M17.4,18.6l7.9-0.1l-3.8,7l-7.7,0.1
		L17.4,18.6z M12.9,25L9,18.2l3.6-6.7l3.9,6.7L12.9,25z M17.3,17.6L13.5,11l7.8-0.2l3.9,6.7L17.3,17.6z M12.9,33.3
		c-2.7,0-5.2-1.5-6.6-3.8L2,22c-0.6-1-0.9-2.1-1-3.2l2.9,0l4.1,0l4.4,7.6c0.1,0.2,0.3,0.2,0.4,0.2l8.6-0.1l3.5,6
		c-1,0.5-2.2,0.8-3.4,0.8H12.9z M32.5,22l-4.3,7.5c-0.6,1-1.4,1.8-2.3,2.5l-3.4-6l4.2-7.7c0.1-0.2,0.1-0.3,0-0.5l-4.4-7.4l0.2-0.3
		l3.3-5.7c1,0.6,1.8,1.5,2.4,2.5l4.3,7.5C33.8,16.7,33.8,19.6,32.5,22z"/>
	<path class="st2" d="M33.3,49.8L29,42.3c-1.5-2.6-4.4-4.3-7.4-4.3h-8.7c-3.1,0-5.9,1.6-7.4,4.3l-4.3,7.5c-1.5,2.6-1.5,5.9,0,8.6
		l4.3,7.5c1.5,2.6,4.4,4.3,7.4,4.3h8.7c3.1,0,5.9-1.6,7.4-4.3l4.3-7.5C34.9,55.8,34.9,52.5,33.3,49.8z M2,50.3l4.3-7.5
		c1.3-2.3,3.9-3.8,6.6-3.8h8.7c1.1,0,2.2,0.3,3.3,0.8l-3.1,5.4l-0.3,0.6l-8.6,0.2c0,0-0.1,0-0.1,0c0,0,0,0,0,0
		c-0.2,0-0.3,0.1-0.4,0.3l0,0c0,0,0,0,0,0l-4.1,7.5l-3.8,0l-3.2,0C1.1,52.5,1.4,51.4,2,50.3z M17.4,54.5l7.9-0.1l-3.8,7l-7.7,0.1
		L17.4,54.5z M12.9,60.9L9,54.2l3.6-6.7l3.9,6.7L12.9,60.9z M17.3,53.5l-3.8-6.6l7.8-0.2l3.9,6.7L17.3,53.5z M12.9,69.2
		c-2.7,0-5.2-1.5-6.6-3.8L2,57.9c-0.6-1-0.9-2.1-1-3.2l2.9,0l4.1,0l4.4,7.6c0.1,0.2,0.3,0.2,0.4,0.2l8.6-0.1l3.5,6
		c-1,0.5-2.2,0.8-3.4,0.8H12.9z M32.5,57.9l-4.3,7.5c-0.6,1-1.4,1.8-2.3,2.5l-3.4-6l4.2-7.7c0.1-0.2,0.1-0.3,0-0.5l-4.4-7.4l0.2-0.3
		l3.3-5.7c1,0.6,1.8,1.5,2.4,2.5l4.3,7.5C33.8,52.7,33.8,55.6,32.5,57.9z"/>
	<path class="st2" d="M33.3,85.8L29,78.3c-1.5-2.6-4.4-4.3-7.4-4.3h-8.7c-3.1,0-5.9,1.6-7.4,4.3l-4.3,7.5c-1.5,2.6-1.5,5.9,0,8.6
		l4.3,7.5c1.5,2.6,4.4,4.3,7.4,4.3h8.7c3.1,0,5.9-1.6,7.4-4.3l4.3-7.5C34.9,91.7,34.9,88.4,33.3,85.8z M2,86.3l4.3-7.5
		c1.3-2.3,3.9-3.8,6.6-3.8h8.7c1.1,0,2.2,0.3,3.3,0.8l-3.1,5.4l-0.3,0.6l-8.6,0.2c0,0-0.1,0-0.1,0c0,0,0,0,0,0
		c-0.2,0-0.3,0.1-0.4,0.3l0,0c0,0,0,0,0,0l-4.1,7.5l-3.8,0l-3.2,0C1.1,88.5,1.4,87.3,2,86.3z M17.4,90.5l7.9-0.1l-3.8,7l-7.7,0.1
		L17.4,90.5z M12.9,96.9L9,90.1l3.6-6.7l3.9,6.7L12.9,96.9z M17.3,89.5l-3.8-6.6l7.8-0.2l3.9,6.7L17.3,89.5z M12.9,105.1
		c-2.7,0-5.2-1.5-6.6-3.8L2,93.9c-0.6-1-0.9-2.1-1-3.2l2.9,0l4.1,0l4.4,7.6c0.1,0.2,0.3,0.2,0.4,0.2l8.6-0.1l3.5,6
		c-1,0.5-2.2,0.8-3.4,0.8H12.9z M32.5,93.9l-4.3,7.5c-0.6,1-1.4,1.8-2.3,2.5l-3.4-6l4.2-7.7c0.1-0.2,0.1-0.3,0-0.5l-4.4-7.4l0.2-0.3
		l3.3-5.7c1,0.6,1.8,1.5,2.4,2.5l4.3,7.5C33.8,88.6,33.8,91.5,32.5,93.9z"/>
	<path class="st2" d="M33.3,121.7l-4.3-7.5c-1.5-2.6-4.4-4.3-7.4-4.3h-8.7c-3.1,0-5.9,1.6-7.4,4.3l-4.3,7.5c-1.5,2.6-1.5,5.9,0,8.6
		l4.3,7.5c1.5,2.6,4.4,4.3,7.4,4.3h8.7c3.1,0,5.9-1.6,7.4-4.3l4.3-7.5C34.9,127.6,34.9,124.4,33.3,121.7z M2,122.2l4.3-7.5
		c1.3-2.3,3.9-3.8,6.6-3.8h8.7c1.1,0,2.2,0.3,3.3,0.8l-3.1,5.4l-0.3,0.6l-8.6,0.2c0,0-0.1,0-0.1,0c0,0,0,0,0,0
		c-0.2,0-0.3,0.1-0.4,0.3l0,0c0,0,0,0,0,0l-4.1,7.5l-3.8,0l-3.2,0C1.1,124.4,1.4,123.3,2,122.2z M17.4,126.4l7.9-0.1l-3.8,7
		l-7.7,0.1L17.4,126.4z M12.9,132.8L9,126l3.6-6.7l3.9,6.7L12.9,132.8z M17.3,125.4l-3.8-6.6l7.8-0.2l3.9,6.7L17.3,125.4z
		 M12.9,141.1c-2.7,0-5.2-1.5-6.6-3.8L2,129.8c-0.6-1-0.9-2.1-1-3.2l2.9,0l4.1,0l4.4,7.6c0.1,0.2,0.3,0.2,0.4,0.2l8.6-0.1l3.5,6
		c-1,0.5-2.2,0.8-3.4,0.8H12.9z M32.5,129.8l-4.3,7.5c-0.6,1-1.4,1.8-2.3,2.5l-3.4-6l4.2-7.7c0.1-0.2,0.1-0.3,0-0.5l-4.4-7.4
		l0.2-0.3l3.3-5.7c1,0.6,1.8,1.5,2.4,2.5l4.3,7.5C33.8,124.5,33.8,127.5,32.5,129.8z"/>
	<path class="st2" d="M33.3,157.7l-4.3-7.5c-1.5-2.6-4.4-4.3-7.4-4.3h-8.7c-3.1,0-5.9,1.6-7.4,4.3l-4.3,7.5c-1.5,2.6-1.5,5.9,0,8.6
		l4.3,7.5c1.5,2.6,4.4,4.3,7.4,4.3h8.7c3.1,0,5.9-1.6,7.4-4.3l4.3-7.5C34.9,163.6,34.9,160.3,33.3,157.7z M2,158.2l4.3-7.5
		c1.3-2.3,3.9-3.8,6.6-3.8h8.7c1.1,0,2.2,0.3,3.3,0.8l-3.1,5.4l-0.3,0.6l-8.6,0.2c0,0-0.1,0-0.1,0c0,0,0,0,0,0
		c-0.2,0-0.3,0.1-0.4,0.3l0,0c0,0,0,0,0,0l-4.1,7.5l-3.8,0l-3.2,0C1.1,160.4,1.4,159.2,2,158.2z M17.4,162.4l7.9-0.1l-3.8,7
		l-7.7,0.1L17.4,162.4z M12.9,168.8L9,162l3.6-6.7l3.9,6.7L12.9,168.8z M17.3,161.4l-3.8-6.6l7.8-0.2l3.9,6.7L17.3,161.4z M12.9,177
		c-2.7,0-5.2-1.5-6.6-3.8L2,165.7c-0.6-1-0.9-2.1-1-3.2l2.9,0l4.1,0l4.4,7.6c0.1,0.2,0.3,0.2,0.4,0.2l8.6-0.1l3.5,6
		c-1,0.5-2.2,0.8-3.4,0.8H12.9z M32.5,165.7l-4.3,7.5c-0.6,1-1.4,1.8-2.3,2.5l-3.4-6l4.2-7.7c0.1-0.2,0.1-0.3,0-0.5l-4.4-7.4
		l0.2-0.3l3.3-5.7c1,0.6,1.8,1.5,2.4,2.5l4.3,7.5C33.8,160.5,33.8,163.4,32.5,165.7z"/>
	<path class="st2" d="M136.8-4.1l-4.3-7.5c-1.5-2.6-4.4-4.3-7.4-4.3h-8.7c-3.1,0-5.9,1.6-7.4,4.3l-4.3,7.5c-1.5,2.6-1.5,5.9,0,8.6
		l4.3,7.5c1.5,2.6,4.4,4.3,7.4,4.3h8.7c3.1,0,5.9-1.6,7.4-4.3l4.3-7.5C138.3,1.8,138.3-1.5,136.8-4.1z M105.5-3.6l4.3-7.5
		c1.3-2.3,3.9-3.8,6.6-3.8h8.7c1.1,0,2.2,0.3,3.3,0.8l-3.1,5.4l-0.3,0.6L116.2-8c0,0-0.1,0-0.1,0c0,0,0,0,0,0
		c-0.2,0-0.3,0.1-0.4,0.3l0,0c0,0,0,0,0,0l-4.1,7.5l-3.8,0l-3.2,0C104.5-1.4,104.9-2.6,105.5-3.6z M120.8,0.6l7.9-0.1l-3.8,7
		l-7.7,0.1L120.8,0.6z M116.4,7l-3.9-6.8l3.6-6.7l3.9,6.7L116.4,7z M120.8-0.4L117-7.1l7.8-0.2l3.9,6.7L120.8-0.4z M116.4,15.2
		c-2.7,0-5.2-1.5-6.6-3.8l-4.3-7.5c-0.6-1-0.9-2.1-1-3.2l2.9,0l4.1,0l4.4,7.6c0.1,0.2,0.3,0.2,0.4,0.2l8.6-0.1l3.5,6
		c-1,0.5-2.2,0.8-3.4,0.8H116.4z M135.9,3.9l-4.3,7.5c-0.6,1-1.4,1.8-2.3,2.5l-3.4-6l4.2-7.7c0.1-0.2,0.1-0.3,0-0.5l-4.4-7.4
		l0.2-0.3l3.3-5.7c1,0.6,1.8,1.5,2.4,2.5l4.3,7.5C137.3-1.3,137.3,1.6,135.9,3.9z"/>
	<path class="st2" d="M136.8,31.8l-4.3-7.5c-1.5-2.6-4.4-4.3-7.4-4.3h-8.7c-3.1,0-5.9,1.6-7.4,4.3l-4.3,7.5c-1.5,2.6-1.5,5.9,0,8.6
		l4.3,7.5c1.5,2.6,4.4,4.3,7.4,4.3h8.7c3.1,0,5.9-1.6,7.4-4.3l4.3-7.5C138.3,37.7,138.3,34.4,136.8,31.8z M105.5,32.3l4.3-7.5
		c1.3-2.3,3.9-3.8,6.6-3.8h8.7c1.1,0,2.2,0.3,3.3,0.8l-3.1,5.4l-0.3,0.6l-8.6,0.2c0,0-0.1,0-0.1,0c0,0,0,0,0,0
		c-0.2,0-0.3,0.1-0.4,0.3l0,0c0,0,0,0,0,0l-4.1,7.5l-3.8,0l-3.2,0C104.5,34.5,104.9,33.3,105.5,32.3z M120.8,36.5l7.9-0.1l-3.8,7
		l-7.7,0.1L120.8,36.5z M116.4,42.9l-3.9-6.8l3.6-6.7l3.9,6.7L116.4,42.9z M120.8,35.5l-3.8-6.6l7.8-0.2l3.9,6.7L120.8,35.5z
		 M116.4,51.2c-2.7,0-5.2-1.5-6.6-3.8l-4.3-7.5c-0.6-1-0.9-2.1-1-3.2l2.9,0l4.1,0l4.4,7.6c0.1,0.2,0.3,0.2,0.4,0.2l8.6-0.1l3.5,6
		c-1,0.5-2.2,0.8-3.4,0.8H116.4z M135.9,39.9l-4.3,7.5c-0.6,1-1.4,1.8-2.3,2.5l-3.4-6l4.2-7.7c0.1-0.2,0.1-0.3,0-0.5l-4.4-7.4
		l0.2-0.3l3.3-5.7c1,0.6,1.8,1.5,2.4,2.5l4.3,7.5C137.3,34.6,137.3,37.5,135.9,39.9z"/>
	<path class="st2" d="M136.8,67.7l-4.3-7.5c-1.5-2.6-4.4-4.3-7.4-4.3h-8.7c-3.1,0-5.9,1.6-7.4,4.3l-4.3,7.5c-1.5,2.6-1.5,5.9,0,8.6
		l4.3,7.5c1.5,2.6,4.4,4.3,7.4,4.3h8.7c3.1,0,5.9-1.6,7.4-4.3l4.3-7.5C138.3,73.7,138.3,70.4,136.8,67.7z M105.5,68.2l4.3-7.5
		c1.3-2.3,3.9-3.8,6.6-3.8h8.7c1.1,0,2.2,0.3,3.3,0.8l-3.1,5.4l-0.3,0.6l-8.6,0.2c0,0-0.1,0-0.1,0c0,0,0,0,0,0
		c-0.2,0-0.3,0.1-0.4,0.3l0,0c0,0,0,0,0,0l-4.1,7.5l-3.8,0l-3.2,0C104.5,70.5,104.9,69.3,105.5,68.2z M120.8,72.5l7.9-0.1l-3.8,7
		l-7.7,0.1L120.8,72.5z M116.4,78.8l-3.9-6.8l3.6-6.7l3.9,6.7L116.4,78.8z M120.8,71.5l-3.8-6.6l7.8-0.2l3.9,6.7L120.8,71.5z
		 M116.4,87.1c-2.7,0-5.2-1.5-6.6-3.8l-4.3-7.5c-0.6-1-0.9-2.1-1-3.2l2.9,0l4.1,0l4.4,7.6c0.1,0.2,0.3,0.2,0.4,0.2l8.6-0.1l3.5,6
		c-1,0.5-2.2,0.8-3.4,0.8H116.4z M135.9,75.8l-4.3,7.5c-0.6,1-1.4,1.8-2.3,2.5l-3.4-6l4.2-7.7c0.1-0.2,0.1-0.3,0-0.5l-4.4-7.4
		l0.2-0.3l3.3-5.7c1,0.6,1.8,1.5,2.4,2.5l4.3,7.5C137.3,70.6,137.3,73.5,135.9,75.8z"/>
	<path class="st2" d="M136.8,103.7l-4.3-7.5c-1.5-2.6-4.4-4.3-7.4-4.3h-8.7c-3.1,0-5.9,1.6-7.4,4.3l-4.3,7.5c-1.5,2.6-1.5,5.9,0,8.6
		l4.3,7.5c1.5,2.6,4.4,4.3,7.4,4.3h8.7c3.1,0,5.9-1.6,7.4-4.3l4.3-7.5C138.3,109.6,138.3,106.3,136.8,103.7z M105.5,104.2l4.3-7.5
		c1.3-2.3,3.9-3.8,6.6-3.8h8.7c1.1,0,2.2,0.3,3.3,0.8l-3.1,5.4l-0.3,0.6l-8.6,0.2c0,0-0.1,0-0.1,0c0,0,0,0,0,0
		c-0.2,0-0.3,0.1-0.4,0.3l0,0c0,0,0,0,0,0l-4.1,7.5l-3.8,0l-3.2,0C104.5,106.4,104.9,105.2,105.5,104.2z M120.8,108.4l7.9-0.1
		l-3.8,7l-7.7,0.1L120.8,108.4z M116.4,114.8l-3.9-6.8l3.6-6.7l3.9,6.7L116.4,114.8z M120.8,107.4l-3.8-6.6l7.8-0.2l3.9,6.7
		L120.8,107.4z M116.4,123.1c-2.7,0-5.2-1.5-6.6-3.8l-4.3-7.5c-0.6-1-0.9-2.1-1-3.2l2.9,0l4.1,0l4.4,7.6c0.1,0.2,0.3,0.2,0.4,0.2
		l8.6-0.1l3.5,6c-1,0.5-2.2,0.8-3.4,0.8H116.4z M135.9,111.8l-4.3,7.5c-0.6,1-1.4,1.8-2.3,2.5l-3.4-6l4.2-7.7c0.1-0.2,0.1-0.3,0-0.5
		l-4.4-7.4l0.2-0.3l3.3-5.7c1,0.6,1.8,1.5,2.4,2.5l4.3,7.5C137.3,106.5,137.3,109.4,135.9,111.8z"/>
	<path class="st2" d="M136.8,139.6l-4.3-7.5c-1.5-2.6-4.4-4.3-7.4-4.3h-8.7c-3.1,0-5.9,1.6-7.4,4.3l-4.3,7.5c-1.5,2.6-1.5,5.9,0,8.6
		l4.3,7.5c1.5,2.6,4.4,4.3,7.4,4.3h8.7c3.1,0,5.9-1.6,7.4-4.3l4.3-7.5C138.3,145.6,138.3,142.3,136.8,139.6z M105.5,140.1l4.3-7.5
		c1.3-2.3,3.9-3.8,6.6-3.8h8.7c1.1,0,2.2,0.3,3.3,0.8l-3.1,5.4l-0.3,0.6l-8.6,0.2c0,0-0.1,0-0.1,0c0,0,0,0,0,0
		c-0.2,0-0.3,0.1-0.4,0.3l0,0c0,0,0,0,0,0l-4.1,7.5l-3.8,0l-3.2,0C104.5,142.3,104.9,141.2,105.5,140.1z M120.8,144.3l7.9-0.1
		l-3.8,7l-7.7,0.1L120.8,144.3z M116.4,150.7l-3.9-6.8l3.6-6.7l3.9,6.7L116.4,150.7z M120.8,143.3l-3.8-6.6l7.8-0.2l3.9,6.7
		L120.8,143.3z M116.4,159c-2.7,0-5.2-1.5-6.6-3.8l-4.3-7.5c-0.6-1-0.9-2.1-1-3.2l2.9,0l4.1,0l4.4,7.6c0.1,0.2,0.3,0.2,0.4,0.2
		l8.6-0.1l3.5,6c-1,0.5-2.2,0.8-3.4,0.8H116.4z M135.9,147.7l-4.3,7.5c-0.6,1-1.4,1.8-2.3,2.5l-3.4-6l4.2-7.7c0.1-0.2,0.1-0.3,0-0.5
		l-4.4-7.4l0.2-0.3l3.3-5.7c1,0.6,1.8,1.5,2.4,2.5l4.3,7.5C137.3,142.5,137.3,145.4,135.9,147.7z"/>
	<path class="st2" d="M136.8,175.6l-4.3-7.5c-1.5-2.6-4.4-4.3-7.4-4.3h-8.7c-3.1,0-5.9,1.6-7.4,4.3l-4.3,7.5c-1.5,2.6-1.5,5.9,0,8.6
		l4.3,7.5c1.5,2.6,4.4,4.3,7.4,4.3h8.7c3.1,0,5.9-1.6,7.4-4.3l4.3-7.5C138.3,181.5,138.3,178.2,136.8,175.6z M105.5,176.1l4.3-7.5
		c1.3-2.3,3.9-3.8,6.6-3.8h8.7c1.1,0,2.2,0.3,3.3,0.8l-3.1,5.4l-0.3,0.6l-8.6,0.2c0,0-0.1,0-0.1,0c0,0,0,0,0,0
		c-0.2,0-0.3,0.1-0.4,0.3l0,0c0,0,0,0,0,0l-4.1,7.5l-3.8,0l-3.2,0C104.5,178.3,104.9,177.1,105.5,176.1z M120.8,180.3l7.9-0.1
		l-3.8,7l-7.7,0.1L120.8,180.3z M116.4,186.7l-3.9-6.8l3.6-6.7l3.9,6.7L116.4,186.7z M120.8,179.3l-3.8-6.6l7.8-0.2l3.9,6.7
		L120.8,179.3z M116.4,194.9c-2.7,0-5.2-1.5-6.6-3.8l-4.3-7.5c-0.6-1-0.9-2.1-1-3.2l2.9,0l4.1,0l4.4,7.6c0.1,0.2,0.3,0.2,0.4,0.2
		l8.6-0.1l3.5,6c-1,0.5-2.2,0.8-3.4,0.8H116.4z M135.9,183.6l-4.3,7.5c-0.6,1-1.4,1.8-2.3,2.5l-3.4-6l4.2-7.7c0.1-0.2,0.1-0.3,0-0.5
		l-4.4-7.4l0.2-0.3l3.3-5.7c1,0.6,1.8,1.5,2.4,2.5l4.3,7.5C137.3,178.4,137.3,181.3,135.9,183.6z"/>
	<path class="st2" d="M102.3,13.9L98,6.4c-1.5-2.6-4.4-4.3-7.4-4.3h-8.7c-3.1,0-5.9,1.6-7.4,4.3l-4.3,7.5c-1.5,2.6-1.5,5.9,0,8.6
		l4.3,7.5c1.5,2.6,4.4,4.3,7.4,4.3h8.7c3.1,0,5.9-1.6,7.4-4.3l4.3-7.5C103.8,19.8,103.8,16.5,102.3,13.9z M71,14.4l4.3-7.5
		c1.3-2.3,3.9-3.8,6.6-3.8h8.7c1.1,0,2.2,0.3,3.3,0.8l-3.1,5.4l-0.3,0.6L81.7,10c0,0-0.1,0-0.1,0c0,0,0,0,0,0
		c-0.2,0-0.3,0.1-0.4,0.3l0,0c0,0,0,0,0,0L77,17.7l-3.8,0l-3.2,0C70.1,16.6,70.4,15.4,71,14.4z M86.4,18.6l7.9-0.1l-3.8,7l-7.7,0.1
		L86.4,18.6z M81.9,25L78,18.2l3.6-6.7l3.9,6.7L81.9,25z M86.3,17.6L82.5,11l7.8-0.2l3.9,6.7L86.3,17.6z M81.9,33.3
		c-2.7,0-5.2-1.5-6.6-3.8L71,22c-0.6-1-0.9-2.1-1-3.2l2.9,0l4.1,0l4.4,7.6c0.1,0.2,0.3,0.2,0.4,0.2l8.6-0.1l3.5,6
		c-1,0.5-2.2,0.8-3.4,0.8H81.9z M101.4,22l-4.3,7.5c-0.6,1-1.4,1.8-2.3,2.5l-3.4-6l4.2-7.7c0.1-0.2,0.1-0.3,0-0.5l-4.4-7.4l0.2-0.3
		l3.3-5.7c1,0.6,1.8,1.5,2.4,2.5l4.3,7.5C102.8,16.7,102.8,19.6,101.4,22z"/>
	<path class="st2" d="M102.3,49.8L98,42.3c-1.5-2.6-4.4-4.3-7.4-4.3h-8.7c-3.1,0-5.9,1.6-7.4,4.3l-4.3,7.5c-1.5,2.6-1.5,5.9,0,8.6
		l4.3,7.5c1.5,2.6,4.4,4.3,7.4,4.3h8.7c3.1,0,5.9-1.6,7.4-4.3l4.3-7.5C103.8,55.8,103.8,52.5,102.3,49.8z M71,50.3l4.3-7.5
		c1.3-2.3,3.9-3.8,6.6-3.8h8.7c1.1,0,2.2,0.3,3.3,0.8l-3.1,5.4l-0.3,0.6l-8.6,0.2c0,0-0.1,0-0.1,0c0,0,0,0,0,0
		c-0.2,0-0.3,0.1-0.4,0.3l0,0c0,0,0,0,0,0L77,53.7l-3.8,0l-3.2,0C70.1,52.5,70.4,51.4,71,50.3z M86.4,54.5l7.9-0.1l-3.8,7l-7.7,0.1
		L86.4,54.5z M81.9,60.9L78,54.2l3.6-6.7l3.9,6.7L81.9,60.9z M86.3,53.5l-3.8-6.6l7.8-0.2l3.9,6.7L86.3,53.5z M81.9,69.2
		c-2.7,0-5.2-1.5-6.6-3.8L71,57.9c-0.6-1-0.9-2.1-1-3.2l2.9,0l4.1,0l4.4,7.6c0.1,0.2,0.3,0.2,0.4,0.2l8.6-0.1l3.5,6
		c-1,0.5-2.2,0.8-3.4,0.8H81.9z M101.4,57.9l-4.3,7.5c-0.6,1-1.4,1.8-2.3,2.5l-3.4-6l4.2-7.7c0.1-0.2,0.1-0.3,0-0.5l-4.4-7.4
		l0.2-0.3l3.3-5.7c1,0.6,1.8,1.5,2.4,2.5l4.3,7.5C102.8,52.7,102.8,55.6,101.4,57.9z"/>
	<path class="st2" d="M102.3,85.8L98,78.3c-1.5-2.6-4.4-4.3-7.4-4.3h-8.7c-3.1,0-5.9,1.6-7.4,4.3l-4.3,7.5c-1.5,2.6-1.5,5.9,0,8.6
		l4.3,7.5c1.5,2.6,4.4,4.3,7.4,4.3h8.7c3.1,0,5.9-1.6,7.4-4.3l4.3-7.5C103.8,91.7,103.8,88.4,102.3,85.8z M71,86.3l4.3-7.5
		c1.3-2.3,3.9-3.8,6.6-3.8h8.7c1.1,0,2.2,0.3,3.3,0.8l-3.1,5.4l-0.3,0.6l-8.6,0.2c0,0-0.1,0-0.1,0c0,0,0,0,0,0
		c-0.2,0-0.3,0.1-0.4,0.3l0,0c0,0,0,0,0,0L77,89.6l-3.8,0l-3.2,0C70.1,88.5,70.4,87.3,71,86.3z M86.4,90.5l7.9-0.1l-3.8,7l-7.7,0.1
		L86.4,90.5z M81.9,96.9L78,90.1l3.6-6.7l3.9,6.7L81.9,96.9z M86.3,89.5l-3.8-6.6l7.8-0.2l3.9,6.7L86.3,89.5z M81.9,105.1
		c-2.7,0-5.2-1.5-6.6-3.8L71,93.9c-0.6-1-0.9-2.1-1-3.2l2.9,0l4.1,0l4.4,7.6c0.1,0.2,0.3,0.2,0.4,0.2l8.6-0.1l3.5,6
		c-1,0.5-2.2,0.8-3.4,0.8H81.9z M101.4,93.9l-4.3,7.5c-0.6,1-1.4,1.8-2.3,2.5l-3.4-6l4.2-7.7c0.1-0.2,0.1-0.3,0-0.5l-4.4-7.4
		l0.2-0.3l3.3-5.7c1,0.6,1.8,1.5,2.4,2.5l4.3,7.5C102.8,88.6,102.8,91.5,101.4,93.9z"/>
	<path class="st2" d="M102.3,121.7l-4.3-7.5c-1.5-2.6-4.4-4.3-7.4-4.3h-8.7c-3.1,0-5.9,1.6-7.4,4.3l-4.3,7.5c-1.5,2.6-1.5,5.9,0,8.6
		l4.3,7.5c1.5,2.6,4.4,4.3,7.4,4.3h8.7c3.1,0,5.9-1.6,7.4-4.3l4.3-7.5C103.8,127.6,103.8,124.4,102.3,121.7z M71,122.2l4.3-7.5
		c1.3-2.3,3.9-3.8,6.6-3.8h8.7c1.1,0,2.2,0.3,3.3,0.8l-3.1,5.4l-0.3,0.6l-8.6,0.2c0,0-0.1,0-0.1,0c0,0,0,0,0,0
		c-0.2,0-0.3,0.1-0.4,0.3l0,0c0,0,0,0,0,0l-4.1,7.5l-3.8,0l-3.2,0C70.1,124.4,70.4,123.3,71,122.2z M86.4,126.4l7.9-0.1l-3.8,7
		l-7.7,0.1L86.4,126.4z M81.9,132.8L78,126l3.6-6.7l3.9,6.7L81.9,132.8z M86.3,125.4l-3.8-6.6l7.8-0.2l3.9,6.7L86.3,125.4z
		 M81.9,141.1c-2.7,0-5.2-1.5-6.6-3.8l-4.3-7.5c-0.6-1-0.9-2.1-1-3.2l2.9,0l4.1,0l4.4,7.6c0.1,0.2,0.3,0.2,0.4,0.2l8.6-0.1l3.5,6
		c-1,0.5-2.2,0.8-3.4,0.8H81.9z M101.4,129.8l-4.3,7.5c-0.6,1-1.4,1.8-2.3,2.5l-3.4-6l4.2-7.7c0.1-0.2,0.1-0.3,0-0.5l-4.4-7.4
		l0.2-0.3l3.3-5.7c1,0.6,1.8,1.5,2.4,2.5l4.3,7.5C102.8,124.5,102.8,127.5,101.4,129.8z"/>
	<path class="st2" d="M102.3,157.7l-4.3-7.5c-1.5-2.6-4.4-4.3-7.4-4.3h-8.7c-3.1,0-5.9,1.6-7.4,4.3l-4.3,7.5c-1.5,2.6-1.5,5.9,0,8.6
		l4.3,7.5c1.5,2.6,4.4,4.3,7.4,4.3h8.7c3.1,0,5.9-1.6,7.4-4.3l4.3-7.5C103.8,163.6,103.8,160.3,102.3,157.7z M71,158.2l4.3-7.5
		c1.3-2.3,3.9-3.8,6.6-3.8h8.7c1.1,0,2.2,0.3,3.3,0.8l-3.1,5.4l-0.3,0.6l-8.6,0.2c0,0-0.1,0-0.1,0c0,0,0,0,0,0
		c-0.2,0-0.3,0.1-0.4,0.3l0,0c0,0,0,0,0,0l-4.1,7.5l-3.8,0l-3.2,0C70.1,160.4,70.4,159.2,71,158.2z M86.4,162.4l7.9-0.1l-3.8,7
		l-7.7,0.1L86.4,162.4z M81.9,168.8L78,162l3.6-6.7l3.9,6.7L81.9,168.8z M86.3,161.4l-3.8-6.6l7.8-0.2l3.9,6.7L86.3,161.4z
		 M81.9,177c-2.7,0-5.2-1.5-6.6-3.8l-4.3-7.5c-0.6-1-0.9-2.1-1-3.2l2.9,0l4.1,0l4.4,7.6c0.1,0.2,0.3,0.2,0.4,0.2l8.6-0.1l3.5,6
		c-1,0.5-2.2,0.8-3.4,0.8H81.9z M101.4,165.7l-4.3,7.5c-0.6,1-1.4,1.8-2.3,2.5l-3.4-6l4.2-7.7c0.1-0.2,0.1-0.3,0-0.5l-4.4-7.4
		l0.2-0.3l3.3-5.7c1,0.6,1.8,1.5,2.4,2.5l4.3,7.5C102.8,160.5,102.8,163.4,101.4,165.7z"/>
	<path class="st2" d="M205.8-4.1l-4.3-7.5c-1.5-2.6-4.4-4.3-7.4-4.3h-8.7c-3.1,0-5.9,1.6-7.4,4.3l-4.3,7.5c-1.5,2.6-1.5,5.9,0,8.6
		l4.3,7.5c1.5,2.6,4.4,4.3,7.4,4.3h8.7c3.1,0,5.9-1.6,7.4-4.3l4.3-7.5C207.3,1.8,207.3-1.5,205.8-4.1z M174.4-3.6l4.3-7.5
		c1.3-2.3,3.9-3.8,6.6-3.8h8.7c1.1,0,2.2,0.3,3.3,0.8l-3.1,5.4l-0.3,0.6L185.1-8c0,0-0.1,0-0.1,0c0,0,0,0,0,0
		c-0.2,0-0.3,0.1-0.4,0.3l0,0c0,0,0,0,0,0l-4.1,7.5l-3.8,0l-3.2,0C173.5-1.4,173.8-2.6,174.4-3.6z M189.8,0.6l7.9-0.1l-3.8,7
		l-7.7,0.1L189.8,0.6z M185.3,7l-3.9-6.8l3.6-6.7l3.9,6.7L185.3,7z M189.7-0.4l-3.8-6.6l7.8-0.2l3.9,6.7L189.7-0.4z M185.3,15.2
		c-2.7,0-5.2-1.5-6.6-3.8l-4.3-7.5c-0.6-1-0.9-2.1-1-3.2l2.9,0l4.1,0l4.4,7.6c0.1,0.2,0.3,0.2,0.4,0.2l8.6-0.1l3.5,6
		c-1,0.5-2.2,0.8-3.4,0.8H185.3z M204.9,3.9l-4.3,7.5c-0.6,1-1.4,1.8-2.3,2.5l-3.4-6l4.2-7.7c0.1-0.2,0.1-0.3,0-0.5l-4.4-7.4
		l0.2-0.3l3.3-5.7c1,0.6,1.8,1.5,2.4,2.5l4.3,7.5C206.2-1.3,206.2,1.6,204.9,3.9z"/>
	<path class="st2" d="M205.8,31.8l-4.3-7.5c-1.5-2.6-4.4-4.3-7.4-4.3h-8.7c-3.1,0-5.9,1.6-7.4,4.3l-4.3,7.5c-1.5,2.6-1.5,5.9,0,8.6
		l4.3,7.5c1.5,2.6,4.4,4.3,7.4,4.3h8.7c3.1,0,5.9-1.6,7.4-4.3l4.3-7.5C207.3,37.7,207.3,34.4,205.8,31.8z M174.4,32.3l4.3-7.5
		c1.3-2.3,3.9-3.8,6.6-3.8h8.7c1.1,0,2.2,0.3,3.3,0.8l-3.1,5.4l-0.3,0.6l-8.6,0.2c0,0-0.1,0-0.1,0c0,0,0,0,0,0
		c-0.2,0-0.3,0.1-0.4,0.3l0,0c0,0,0,0,0,0l-4.1,7.5l-3.8,0l-3.2,0C173.5,34.5,173.8,33.3,174.4,32.3z M189.8,36.5l7.9-0.1l-3.8,7
		l-7.7,0.1L189.8,36.5z M185.3,42.9l-3.9-6.8l3.6-6.7l3.9,6.7L185.3,42.9z M189.7,35.5l-3.8-6.6l7.8-0.2l3.9,6.7L189.7,35.5z
		 M185.3,51.2c-2.7,0-5.2-1.5-6.6-3.8l-4.3-7.5c-0.6-1-0.9-2.1-1-3.2l2.9,0l4.1,0l4.4,7.6c0.1,0.2,0.3,0.2,0.4,0.2l8.6-0.1l3.5,6
		c-1,0.5-2.2,0.8-3.4,0.8H185.3z M204.9,39.9l-4.3,7.5c-0.6,1-1.4,1.8-2.3,2.5l-3.4-6l4.2-7.7c0.1-0.2,0.1-0.3,0-0.5l-4.4-7.4
		l0.2-0.3l3.3-5.7c1,0.6,1.8,1.5,2.4,2.5l4.3,7.5C206.2,34.6,206.2,37.5,204.9,39.9z"/>
	<path class="st2" d="M205.8,67.7l-4.3-7.5c-1.5-2.6-4.4-4.3-7.4-4.3h-8.7c-3.1,0-5.9,1.6-7.4,4.3l-4.3,7.5c-1.5,2.6-1.5,5.9,0,8.6
		l4.3,7.5c1.5,2.6,4.4,4.3,7.4,4.3h8.7c3.1,0,5.9-1.6,7.4-4.3l4.3-7.5C207.3,73.7,207.3,70.4,205.8,67.7z M174.4,68.2l4.3-7.5
		c1.3-2.3,3.9-3.8,6.6-3.8h8.7c1.1,0,2.2,0.3,3.3,0.8l-3.1,5.4l-0.3,0.6l-8.6,0.2c0,0-0.1,0-0.1,0c0,0,0,0,0,0
		c-0.2,0-0.3,0.1-0.4,0.3l0,0c0,0,0,0,0,0l-4.1,7.5l-3.8,0l-3.2,0C173.5,70.5,173.8,69.3,174.4,68.2z M189.8,72.5l7.9-0.1l-3.8,7
		l-7.7,0.1L189.8,72.5z M185.3,78.8l-3.9-6.8l3.6-6.7l3.9,6.7L185.3,78.8z M189.7,71.5l-3.8-6.6l7.8-0.2l3.9,6.7L189.7,71.5z
		 M185.3,87.1c-2.7,0-5.2-1.5-6.6-3.8l-4.3-7.5c-0.6-1-0.9-2.1-1-3.2l2.9,0l4.1,0l4.4,7.6c0.1,0.2,0.3,0.2,0.4,0.2l8.6-0.1l3.5,6
		c-1,0.5-2.2,0.8-3.4,0.8H185.3z M204.9,75.8l-4.3,7.5c-0.6,1-1.4,1.8-2.3,2.5l-3.4-6l4.2-7.7c0.1-0.2,0.1-0.3,0-0.5l-4.4-7.4
		l0.2-0.3l3.3-5.7c1,0.6,1.8,1.5,2.4,2.5l4.3,7.5C206.2,70.6,206.2,73.5,204.9,75.8z"/>
	<path class="st2" d="M205.8,103.7l-4.3-7.5c-1.5-2.6-4.4-4.3-7.4-4.3h-8.7c-3.1,0-5.9,1.6-7.4,4.3l-4.3,7.5c-1.5,2.6-1.5,5.9,0,8.6
		l4.3,7.5c1.5,2.6,4.4,4.3,7.4,4.3h8.7c3.1,0,5.9-1.6,7.4-4.3l4.3-7.5C207.3,109.6,207.3,106.3,205.8,103.7z M174.4,104.2l4.3-7.5
		c1.3-2.3,3.9-3.8,6.6-3.8h8.7c1.1,0,2.2,0.3,3.3,0.8l-3.1,5.4l-0.3,0.6l-8.6,0.2c0,0-0.1,0-0.1,0c0,0,0,0,0,0
		c-0.2,0-0.3,0.1-0.4,0.3l0,0c0,0,0,0,0,0l-4.1,7.5l-3.8,0l-3.2,0C173.5,106.4,173.8,105.2,174.4,104.2z M189.8,108.4l7.9-0.1
		l-3.8,7l-7.7,0.1L189.8,108.4z M185.3,114.8l-3.9-6.8l3.6-6.7l3.9,6.7L185.3,114.8z M189.7,107.4l-3.8-6.6l7.8-0.2l3.9,6.7
		L189.7,107.4z M185.3,123.1c-2.7,0-5.2-1.5-6.6-3.8l-4.3-7.5c-0.6-1-0.9-2.1-1-3.2l2.9,0l4.1,0l4.4,7.6c0.1,0.2,0.3,0.2,0.4,0.2
		l8.6-0.1l3.5,6c-1,0.5-2.2,0.8-3.4,0.8H185.3z M204.9,111.8l-4.3,7.5c-0.6,1-1.4,1.8-2.3,2.5l-3.4-6l4.2-7.7c0.1-0.2,0.1-0.3,0-0.5
		l-4.4-7.4l0.2-0.3l3.3-5.7c1,0.6,1.8,1.5,2.4,2.5l4.3,7.5C206.2,106.5,206.2,109.4,204.9,111.8z"/>
	<path class="st2" d="M205.8,139.6l-4.3-7.5c-1.5-2.6-4.4-4.3-7.4-4.3h-8.7c-3.1,0-5.9,1.6-7.4,4.3l-4.3,7.5c-1.5,2.6-1.5,5.9,0,8.6
		l4.3,7.5c1.5,2.6,4.4,4.3,7.4,4.3h8.7c3.1,0,5.9-1.6,7.4-4.3l4.3-7.5C207.3,145.6,207.3,142.3,205.8,139.6z M174.4,140.1l4.3-7.5
		c1.3-2.3,3.9-3.8,6.6-3.8h8.7c1.1,0,2.2,0.3,3.3,0.8l-3.1,5.4l-0.3,0.6l-8.6,0.2c0,0-0.1,0-0.1,0c0,0,0,0,0,0
		c-0.2,0-0.3,0.1-0.4,0.3l0,0c0,0,0,0,0,0l-4.1,7.5l-3.8,0l-3.2,0C173.5,142.3,173.8,141.2,174.4,140.1z M189.8,144.3l7.9-0.1
		l-3.8,7l-7.7,0.1L189.8,144.3z M185.3,150.7l-3.9-6.8l3.6-6.7l3.9,6.7L185.3,150.7z M189.7,143.3l-3.8-6.6l7.8-0.2l3.9,6.7
		L189.7,143.3z M185.3,159c-2.7,0-5.2-1.5-6.6-3.8l-4.3-7.5c-0.6-1-0.9-2.1-1-3.2l2.9,0l4.1,0l4.4,7.6c0.1,0.2,0.3,0.2,0.4,0.2
		l8.6-0.1l3.5,6c-1,0.5-2.2,0.8-3.4,0.8H185.3z M204.9,147.7l-4.3,7.5c-0.6,1-1.4,1.8-2.3,2.5l-3.4-6l4.2-7.7c0.1-0.2,0.1-0.3,0-0.5
		l-4.4-7.4l0.2-0.3l3.3-5.7c1,0.6,1.8,1.5,2.4,2.5l4.3,7.5C206.2,142.5,206.2,145.4,204.9,147.7z"/>
	<path class="st2" d="M205.8,175.6l-4.3-7.5c-1.5-2.6-4.4-4.3-7.4-4.3h-8.7c-3.1,0-5.9,1.6-7.4,4.3l-4.3,7.5c-1.5,2.6-1.5,5.9,0,8.6
		l4.3,7.5c1.5,2.6,4.4,4.3,7.4,4.3h8.7c3.1,0,5.9-1.6,7.4-4.3l4.3-7.5C207.3,181.5,207.3,178.2,205.8,175.6z M174.4,176.1l4.3-7.5
		c1.3-2.3,3.9-3.8,6.6-3.8h8.7c1.1,0,2.2,0.3,3.3,0.8l-3.1,5.4l-0.3,0.6l-8.6,0.2c0,0-0.1,0-0.1,0c0,0,0,0,0,0
		c-0.2,0-0.3,0.1-0.4,0.3l0,0c0,0,0,0,0,0l-4.1,7.5l-3.8,0l-3.2,0C173.5,178.3,173.8,177.1,174.4,176.1z M189.8,180.3l7.9-0.1
		l-3.8,7l-7.7,0.1L189.8,180.3z M185.3,186.7l-3.9-6.8l3.6-6.7l3.9,6.7L185.3,186.7z M189.7,179.3l-3.8-6.6l7.8-0.2l3.9,6.7
		L189.7,179.3z M185.3,194.9c-2.7,0-5.2-1.5-6.6-3.8l-4.3-7.5c-0.6-1-0.9-2.1-1-3.2l2.9,0l4.1,0l4.4,7.6c0.1,0.2,0.3,0.2,0.4,0.2
		l8.6-0.1l3.5,6c-1,0.5-2.2,0.8-3.4,0.8H185.3z M204.9,183.6l-4.3,7.5c-0.6,1-1.4,1.8-2.3,2.5l-3.4-6l4.2-7.7c0.1-0.2,0.1-0.3,0-0.5
		l-4.4-7.4l0.2-0.3l3.3-5.7c1,0.6,1.8,1.5,2.4,2.5l4.3,7.5C206.2,178.4,206.2,181.3,204.9,183.6z"/>
	<path class="st2" d="M171.3,13.9l-4.3-7.5c-1.5-2.6-4.4-4.3-7.4-4.3h-8.7c-3.1,0-5.9,1.6-7.4,4.3l-4.3,7.5c-1.5,2.6-1.5,5.9,0,8.6
		l4.3,7.5c1.5,2.6,4.4,4.3,7.4,4.3h8.7c3.1,0,5.9-1.6,7.4-4.3l4.3-7.5C172.8,19.8,172.8,16.5,171.3,13.9z M139.9,14.4l4.3-7.5
		c1.3-2.3,3.9-3.8,6.6-3.8h8.7c1.1,0,2.2,0.3,3.3,0.8l-3.1,5.4l-0.3,0.6l-8.6,0.2c0,0-0.1,0-0.1,0c0,0,0,0,0,0
		c-0.2,0-0.3,0.1-0.4,0.3l0,0c0,0,0,0,0,0l-4.1,7.5l-3.8,0l-3.2,0C139,16.6,139.3,15.4,139.9,14.4z M155.3,18.6l7.9-0.1l-3.8,7
		l-7.7,0.1L155.3,18.6z M150.8,25l-3.9-6.8l3.6-6.7l3.9,6.7L150.8,25z M155.3,17.6l-3.8-6.6l7.8-0.2l3.9,6.7L155.3,17.6z
		 M150.8,33.3c-2.7,0-5.2-1.5-6.6-3.8l-4.3-7.5c-0.6-1-0.9-2.1-1-3.2l2.9,0l4.1,0l4.4,7.6c0.1,0.2,0.3,0.2,0.4,0.2l8.6-0.1l3.5,6
		c-1,0.5-2.2,0.8-3.4,0.8H150.8z M170.4,22l-4.3,7.5c-0.6,1-1.4,1.8-2.3,2.5l-3.4-6l4.2-7.7c0.1-0.2,0.1-0.3,0-0.5l-4.4-7.4l0.2-0.3
		l3.3-5.7c1,0.6,1.8,1.5,2.4,2.5l4.3,7.5C171.8,16.7,171.8,19.6,170.4,22z"/>
	<path class="st2" d="M171.3,49.8l-4.3-7.5c-1.5-2.6-4.4-4.3-7.4-4.3h-8.7c-3.1,0-5.9,1.6-7.4,4.3l-4.3,7.5c-1.5,2.6-1.5,5.9,0,8.6
		l4.3,7.5c1.5,2.6,4.4,4.3,7.4,4.3h8.7c3.1,0,5.9-1.6,7.4-4.3l4.3-7.5C172.8,55.8,172.8,52.5,171.3,49.8z M139.9,50.3l4.3-7.5
		c1.3-2.3,3.9-3.8,6.6-3.8h8.7c1.1,0,2.2,0.3,3.3,0.8l-3.1,5.4l-0.3,0.6l-8.6,0.2c0,0-0.1,0-0.1,0c0,0,0,0,0,0
		c-0.2,0-0.3,0.1-0.4,0.3l0,0c0,0,0,0,0,0l-4.1,7.5l-3.8,0l-3.2,0C139,52.5,139.3,51.4,139.9,50.3z M155.3,54.5l7.9-0.1l-3.8,7
		l-7.7,0.1L155.3,54.5z M150.8,60.9l-3.9-6.8l3.6-6.7l3.9,6.7L150.8,60.9z M155.3,53.5l-3.8-6.6l7.8-0.2l3.9,6.7L155.3,53.5z
		 M150.8,69.2c-2.7,0-5.2-1.5-6.6-3.8l-4.3-7.5c-0.6-1-0.9-2.1-1-3.2l2.9,0l4.1,0l4.4,7.6c0.1,0.2,0.3,0.2,0.4,0.2l8.6-0.1l3.5,6
		c-1,0.5-2.2,0.8-3.4,0.8H150.8z M170.4,57.9l-4.3,7.5c-0.6,1-1.4,1.8-2.3,2.5l-3.4-6l4.2-7.7c0.1-0.2,0.1-0.3,0-0.5l-4.4-7.4
		l0.2-0.3l3.3-5.7c1,0.6,1.8,1.5,2.4,2.5l4.3,7.5C171.8,52.7,171.8,55.6,170.4,57.9z"/>
	<path class="st2" d="M171.3,85.8l-4.3-7.5c-1.5-2.6-4.4-4.3-7.4-4.3h-8.7c-3.1,0-5.9,1.6-7.4,4.3l-4.3,7.5c-1.5,2.6-1.5,5.9,0,8.6
		l4.3,7.5c1.5,2.6,4.4,4.3,7.4,4.3h8.7c3.1,0,5.9-1.6,7.4-4.3l4.3-7.5C172.8,91.7,172.8,88.4,171.3,85.8z M139.9,86.3l4.3-7.5
		c1.3-2.3,3.9-3.8,6.6-3.8h8.7c1.1,0,2.2,0.3,3.3,0.8l-3.1,5.4l-0.3,0.6l-8.6,0.2c0,0-0.1,0-0.1,0c0,0,0,0,0,0
		c-0.2,0-0.3,0.1-0.4,0.3l0,0c0,0,0,0,0,0l-4.1,7.5l-3.8,0l-3.2,0C139,88.5,139.3,87.3,139.9,86.3z M155.3,90.5l7.9-0.1l-3.8,7
		l-7.7,0.1L155.3,90.5z M150.8,96.9l-3.9-6.8l3.6-6.7l3.9,6.7L150.8,96.9z M155.3,89.5l-3.8-6.6l7.8-0.2l3.9,6.7L155.3,89.5z
		 M150.8,105.1c-2.7,0-5.2-1.5-6.6-3.8l-4.3-7.5c-0.6-1-0.9-2.1-1-3.2l2.9,0l4.1,0l4.4,7.6c0.1,0.2,0.3,0.2,0.4,0.2l8.6-0.1l3.5,6
		c-1,0.5-2.2,0.8-3.4,0.8H150.8z M170.4,93.9l-4.3,7.5c-0.6,1-1.4,1.8-2.3,2.5l-3.4-6l4.2-7.7c0.1-0.2,0.1-0.3,0-0.5l-4.4-7.4
		l0.2-0.3l3.3-5.7c1,0.6,1.8,1.5,2.4,2.5l4.3,7.5C171.8,88.6,171.8,91.5,170.4,93.9z"/>
	<path class="st2" d="M171.3,121.7l-4.3-7.5c-1.5-2.6-4.4-4.3-7.4-4.3h-8.7c-3.1,0-5.9,1.6-7.4,4.3l-4.3,7.5c-1.5,2.6-1.5,5.9,0,8.6
		l4.3,7.5c1.5,2.6,4.4,4.3,7.4,4.3h8.7c3.1,0,5.9-1.6,7.4-4.3l4.3-7.5C172.8,127.6,172.8,124.4,171.3,121.7z M139.9,122.2l4.3-7.5
		c1.3-2.3,3.9-3.8,6.6-3.8h8.7c1.1,0,2.2,0.3,3.3,0.8l-3.1,5.4l-0.3,0.6l-8.6,0.2c0,0-0.1,0-0.1,0c0,0,0,0,0,0
		c-0.2,0-0.3,0.1-0.4,0.3l0,0c0,0,0,0,0,0l-4.1,7.5l-3.8,0l-3.2,0C139,124.4,139.3,123.3,139.9,122.2z M155.3,126.4l7.9-0.1l-3.8,7
		l-7.7,0.1L155.3,126.4z M150.8,132.8l-3.9-6.8l3.6-6.7l3.9,6.7L150.8,132.8z M155.3,125.4l-3.8-6.6l7.8-0.2l3.9,6.7L155.3,125.4z
		 M150.8,141.1c-2.7,0-5.2-1.5-6.6-3.8l-4.3-7.5c-0.6-1-0.9-2.1-1-3.2l2.9,0l4.1,0l4.4,7.6c0.1,0.2,0.3,0.2,0.4,0.2l8.6-0.1l3.5,6
		c-1,0.5-2.2,0.8-3.4,0.8H150.8z M170.4,129.8l-4.3,7.5c-0.6,1-1.4,1.8-2.3,2.5l-3.4-6l4.2-7.7c0.1-0.2,0.1-0.3,0-0.5l-4.4-7.4
		l0.2-0.3l3.3-5.7c1,0.6,1.8,1.5,2.4,2.5l4.3,7.5C171.8,124.5,171.8,127.5,170.4,129.8z"/>
	<path class="st2" d="M171.3,157.7l-4.3-7.5c-1.5-2.6-4.4-4.3-7.4-4.3h-8.7c-3.1,0-5.9,1.6-7.4,4.3l-4.3,7.5c-1.5,2.6-1.5,5.9,0,8.6
		l4.3,7.5c1.5,2.6,4.4,4.3,7.4,4.3h8.7c3.1,0,5.9-1.6,7.4-4.3l4.3-7.5C172.8,163.6,172.8,160.3,171.3,157.7z M139.9,158.2l4.3-7.5
		c1.3-2.3,3.9-3.8,6.6-3.8h8.7c1.1,0,2.2,0.3,3.3,0.8l-3.1,5.4l-0.3,0.6l-8.6,0.2c0,0-0.1,0-0.1,0c0,0,0,0,0,0
		c-0.2,0-0.3,0.1-0.4,0.3l0,0c0,0,0,0,0,0l-4.1,7.5l-3.8,0l-3.2,0C139,160.4,139.3,159.2,139.9,158.2z M155.3,162.4l7.9-0.1l-3.8,7
		l-7.7,0.1L155.3,162.4z M150.8,168.8l-3.9-6.8l3.6-6.7l3.9,6.7L150.8,168.8z M155.3,161.4l-3.8-6.6l7.8-0.2l3.9,6.7L155.3,161.4z
		 M150.8,177c-2.7,0-5.2-1.5-6.6-3.8l-4.3-7.5c-0.6-1-0.9-2.1-1-3.2l2.9,0l4.1,0l4.4,7.6c0.1,0.2,0.3,0.2,0.4,0.2l8.6-0.1l3.5,6
		c-1,0.5-2.2,0.8-3.4,0.8H150.8z M170.4,165.7l-4.3,7.5c-0.6,1-1.4,1.8-2.3,2.5l-3.4-6l4.2-7.7c0.1-0.2,0.1-0.3,0-0.5l-4.4-7.4
		l0.2-0.3l3.3-5.7c1,0.6,1.8,1.5,2.4,2.5l4.3,7.5C171.8,160.5,171.8,163.4,170.4,165.7z"/>
</g>
</svg>
