<svg id="Layer_1" data-name="Layer 1" xmlns="http://www.w3.org/2000/svg" xmlns:xlink="http://www.w3.org/1999/xlink" viewBox="0 0 242.71 242.71"><defs><style>.cls-1,.cls-2{fill:none;}.cls-1{clip-rule:evenodd;}.cls-3,.cls-4{fill:#fff;}.cls-4{fill-rule:evenodd;}.cls-5{clip-path:url(#clip-path);}.cls-6{clip-path:url(#clip-path-2);}.cls-7{fill:#272626;}.cls-8{clip-path:url(#clip-path-3);}.cls-9{fill:#c0bfbf;}.cls-10{clip-path:url(#clip-path-5);}.cls-11{fill:#a7a6a6;}.cls-12{clip-path:url(#clip-path-7);}.cls-13{clip-path:url(#clip-path-9);}.cls-14{fill:#676767;}.cls-15{clip-path:url(#clip-path-10);}.cls-16{fill:#4e4e4e;}</style><clipPath id="clip-path"><path class="cls-1" d="M192.82,176.9a18.26,18.26,0,0,1,0,18.28l-9.79,17a18.28,18.28,0,0,1-15.83,9.14H147.61a18.28,18.28,0,0,1-15.83-9.14l-9.79-17a18.26,18.26,0,0,1,0-18.28l9.79-17a18.28,18.28,0,0,1,15.83-9.14H167.2A18.28,18.28,0,0,1,183,159.94Z"/></clipPath><clipPath id="clip-path-2"><rect class="cls-2" x="118.68" y="150.8" width="77.33" height="70.49"/></clipPath><clipPath id="clip-path-3"><polygon class="cls-1" points="140.01 221.27 177.74 221.1 167.67 203.66 147.55 203.88 137.35 186.21 116.77 186.29 135.38 218.54 137.02 221.37 140.01 221.27"/></clipPath><clipPath id="clip-path-5"><polygon class="cls-1" points="116.78 186.31 137.36 186.19 146.9 168.65 167.38 168.25 177.48 150.9 137.02 150.79 116.78 186.31"/></clipPath><clipPath id="clip-path-7"><polygon class="cls-1" points="177.45 150.87 167.36 168.29 177.61 185.62 167.7 203.64 177.75 221.1 198.02 185.99 177.45 150.87"/></clipPath><clipPath id="clip-path-9"><polygon class="cls-1" points="147.66 203.8 157 185.99 146.95 168.57 137.46 186.14 147.66 203.8"/></clipPath><clipPath id="clip-path-10"><polygon class="cls-1" points="147.03 168.67 156.97 185.88 177.52 185.6 167.32 168.25 147.03 168.67"/></clipPath></defs><title>hl</title><path class="cls-3" d="M97.69,200c0-3-1.11-5-3.34-6.17a19.49,19.49,0,0,0-8.9-1.72H75.84v16.39h9.71a26.83,26.83,0,0,0,4.2-.35,13.2,13.2,0,0,0,3.94-1.27,7.71,7.71,0,0,0,2.89-2.58A7.63,7.63,0,0,0,97.69,200Zm-2.33-28.43a5.72,5.72,0,0,0-2.78-5.31q-2.77-1.67-8.25-1.67H75.84v14.77h9.3q4.86,0,7.54-2A6.77,6.77,0,0,0,95.36,171.59Zm19.63,30a19.21,19.21,0,0,1-2.33,9.86,18.37,18.37,0,0,1-6.17,6.43,26.88,26.88,0,0,1-8.75,3.49,47.34,47.34,0,0,1-10.07,1.06H59.14V150.85H87.67a44,44,0,0,1,8.5.86,25.09,25.09,0,0,1,7.89,2.93,16.77,16.77,0,0,1,5.77,5.62,16.59,16.59,0,0,1,2.23,9,14.93,14.93,0,0,1-3.24,9.87,18.05,18.05,0,0,1-8.5,5.61V185a19.5,19.5,0,0,1,5.72,1.87,16.46,16.46,0,0,1,4.65,3.49,16.24,16.24,0,0,1,3.14,5A16.7,16.7,0,0,1,115,201.64Z"/><path class="cls-3" d="M117.12,130.47a33.89,33.89,0,0,1-11.74,8.65,38.25,38.25,0,0,1-16.09,3.19A41.93,41.93,0,0,1,74,139.58a35.35,35.35,0,0,1-20.29-19.73,39.22,39.22,0,0,1-2.93-15.38,39.27,39.27,0,0,1,3-15.58A34.67,34.67,0,0,1,62,77a36.57,36.57,0,0,1,12.34-7.54,44.26,44.26,0,0,1,30.2.05,28.66,28.66,0,0,1,11.89,7.85L104.67,89.09a14.48,14.48,0,0,0-6.37-5,21.14,21.14,0,0,0-8.1-1.62,20.37,20.37,0,0,0-8.34,1.67,19.47,19.47,0,0,0-6.53,4.6,21,21,0,0,0-4.25,6.93,24.47,24.47,0,0,0-1.52,8.75,25.25,25.25,0,0,0,1.52,8.91,20.82,20.82,0,0,0,4.2,6.93,19,19,0,0,0,6.43,4.5,20.36,20.36,0,0,0,8.19,1.62,19.1,19.1,0,0,0,9-2,17.36,17.36,0,0,0,6.17-5.26Z"/><path class="cls-3" d="M188.18,113.38A30.81,30.81,0,0,1,186,125.16a25.62,25.62,0,0,1-6.22,9.11,28.71,28.71,0,0,1-9.77,5.92,39.22,39.22,0,0,1-25.44,0,27.7,27.7,0,0,1-9.61-5.92,25.65,25.65,0,0,1-6.07-9.11,31.39,31.39,0,0,1-2.13-11.78V68.76H144V112a19.81,19.81,0,0,0,.76,5.56,14.23,14.23,0,0,0,2.33,4.71,10.88,10.88,0,0,0,4.14,3.29,16.62,16.62,0,0,0,12.45,0,11.4,11.4,0,0,0,4.2-3.29,13.16,13.16,0,0,0,2.33-4.71,21.39,21.39,0,0,0,.7-5.56V68.76h17.3Z"/><path class="cls-3" d="M73.55,30.67l-5,13.49h9.88ZM84.09,59.49l-3-7.72H65.83l-2.89,7.72H52.61L69.1,20.18h9.22L94.64,59.49Z"/><path class="cls-3" d="M123.93,32.23a3.91,3.91,0,0,0-.59-2.25,4,4,0,0,0-1.5-1.34,6.56,6.56,0,0,0-2-.63,15.32,15.32,0,0,0-2.19-.17h-5.06V37H117a15.08,15.08,0,0,0,2.39-.19,7.49,7.49,0,0,0,2.22-.7,4.21,4.21,0,0,0,1.64-1.44A4.31,4.31,0,0,0,123.93,32.23Zm.39,27.26-8.5-15.6H112.6v15.6h-9.33V20.18h15a26,26,0,0,1,5.53.58,14.58,14.58,0,0,1,4.83,2A10.37,10.37,0,0,1,132,26.4a11.42,11.42,0,0,1,1.28,5.66,10.44,10.44,0,0,1-2.17,6.72,11.76,11.76,0,0,1-6,3.88l10.27,16.83Z"/><path class="cls-3" d="M175.81,39.44a13.41,13.41,0,0,0-.81-4.72A10.79,10.79,0,0,0,172.73,31a10.26,10.26,0,0,0-3.53-2.41,11.6,11.6,0,0,0-4.5-.86,11.22,11.22,0,0,0-4.41.86A10.66,10.66,0,0,0,156.76,31a11.08,11.08,0,0,0-2.33,3.72,13.19,13.19,0,0,0-.83,4.72,14.16,14.16,0,0,0,.8,4.86,11.24,11.24,0,0,0,2.28,3.78,10.14,10.14,0,0,0,3.5,2.44,12,12,0,0,0,8.91,0,10.33,10.33,0,0,0,3.55-2.44A11.19,11.19,0,0,0,175,44.3,13.47,13.47,0,0,0,175.81,39.44ZM164.37,59.49a26.16,26.16,0,0,1-8.55-1.34,18.12,18.12,0,0,1-6.64-3.91,17.75,17.75,0,0,1-4.27-6.33,22.56,22.56,0,0,1-1.53-8.58A20.49,20.49,0,0,1,145,31.12a19.09,19.09,0,0,1,4.47-6.39,20.27,20.27,0,0,1,6.78-4.14,25,25,0,0,1,16.9,0,20.26,20.26,0,0,1,6.72,4.11A18.41,18.41,0,0,1,184.27,31a20.35,20.35,0,0,1,1.59,8.14,17.35,17.35,0,0,1-.5,4.24A16.62,16.62,0,0,1,184,47a14.9,14.9,0,0,1-1.88,2.86A15.32,15.32,0,0,1,180,51.94v.16l8.27-.16v7.55Z"/><polygon class="cls-4" points="0 196.43 0 242.38 45.95 242.38 45.95 229.06 13.58 229.06 13.58 196.43 0 196.43"/><polygon class="cls-4" points="196.43 229.13 196.43 242.71 242.39 242.71 242.39 196.76 229.06 196.76 229.06 229.13 196.43 229.13"/><polygon class="cls-4" points="46.28 0 0.32 0 0.32 45.95 13.65 45.95 13.65 13.58 46.28 13.58 46.28 0"/><polygon class="cls-4" points="242.71 46.28 242.71 0.32 196.76 0.32 196.76 13.65 229.13 13.65 229.13 46.28 242.71 46.28"/><g class="cls-5"><g class="cls-6"><rect class="cls-7" x="118.8" y="150.06" width="77.22" height="71.97"/><g class="cls-8"><g class="cls-6"><rect class="cls-9" x="128.81" y="172.64" width="36.89" height="62.12" transform="translate(-82.12 100.92) rotate(-30)"/></g></g><g class="cls-10"><g class="cls-6"><rect class="cls-11" x="116.03" y="150.04" width="62.19" height="37.01"/></g></g><g class="cls-12"><g class="cls-6"><rect class="cls-3" x="146.51" y="167.53" width="62.16" height="36.89" transform="translate(-72.26 246.78) rotate(-60)"/></g></g><g class="cls-13"><rect class="cls-14" x="138.06" y="170.01" width="18.49" height="32.35" transform="translate(-73.36 98.6) rotate(-30)"/></g><g class="cls-15"><rect class="cls-16" x="146.29" y="167.5" width="31.97" height="19.12"/></g></g></g></svg>