<svg id="Layer_1" data-name="Layer 1" xmlns="http://www.w3.org/2000/svg" xmlns:xlink="http://www.w3.org/1999/xlink" viewBox="0 0 242.71 242.71"><defs><style>.cls-1,.cls-2{fill:none;}.cls-1{clip-rule:evenodd;}.cls-11,.cls-3{fill:#ff6648;}.cls-3,.cls-4,.cls-5,.cls-6{fill-rule:evenodd;}.cls-15,.cls-4{fill:#de416c;}.cls-5{fill:#00f7b1;}.cls-6{fill:#00b9d7;}.cls-7{clip-path:url(#clip-path);}.cls-8{clip-path:url(#clip-path-2);}.cls-9{fill:#efefef;}.cls-10{clip-path:url(#clip-path-3);}.cls-12{clip-path:url(#clip-path-5);}.cls-13{fill:#ff8f2a;}.cls-14{clip-path:url(#clip-path-7);}.cls-16{clip-path:url(#clip-path-9);}.cls-17{fill:#b8b8b8;}.cls-18{clip-path:url(#clip-path-10);}.cls-19{fill:#dbdbdb;}</style><clipPath id="clip-path"><path class="cls-1" d="M192.82,176.9a18.31,18.31,0,0,1,0,18.28l-9.79,17a18.28,18.28,0,0,1-15.83,9.14H147.61a18.28,18.28,0,0,1-15.83-9.14l-9.79-17a18.26,18.26,0,0,1,0-18.28l9.79-17a18.28,18.28,0,0,1,15.83-9.14H167.2A18.28,18.28,0,0,1,183,159.94Z"/></clipPath><clipPath id="clip-path-2"><rect class="cls-2" x="118.68" y="150.8" width="77.33" height="70.49"/></clipPath><clipPath id="clip-path-3"><polygon class="cls-1" points="140.01 221.27 177.74 221.1 167.67 203.66 147.55 203.88 137.34 186.21 116.77 186.29 135.38 218.54 137.02 221.37 140.01 221.27"/></clipPath><clipPath id="clip-path-5"><polygon class="cls-1" points="116.78 186.31 137.36 186.19 146.9 168.65 167.38 168.25 177.48 150.9 137.02 150.79 116.78 186.31"/></clipPath><clipPath id="clip-path-7"><polygon class="cls-1" points="177.45 150.87 167.36 168.29 177.61 185.62 167.7 203.64 177.75 221.1 198.02 185.99 177.45 150.87"/></clipPath><clipPath id="clip-path-9"><polygon class="cls-1" points="147.66 203.8 157 185.99 146.95 168.57 137.46 186.14 147.66 203.8"/></clipPath><clipPath id="clip-path-10"><polygon class="cls-1" points="147.03 168.67 156.97 185.88 177.52 185.6 167.32 168.25 147.03 168.67"/></clipPath></defs><title>icoarq-1</title><g id="LOGO_ARQCUBO" data-name="LOGO ARQCUBO"><path d="M115,201.64a19.38,19.38,0,0,1-2.33,9.87,18.51,18.51,0,0,1-6.17,6.42,26.88,26.88,0,0,1-8.75,3.49,47.34,47.34,0,0,1-10.07,1.06H59.14V150.85H87.67a44,44,0,0,1,8.5.86,25.09,25.09,0,0,1,7.89,2.93,15.8,15.8,0,0,1,8,14.62,14.93,14.93,0,0,1-3.24,9.87,18,18,0,0,1-8.5,5.61V185a19.5,19.5,0,0,1,5.72,1.87,16.2,16.2,0,0,1,7.79,8.45A16.7,16.7,0,0,1,115,201.64Zm-19.63-30a5.73,5.73,0,0,0-2.78-5.31c-1.86-1.11-4.6-1.67-8.25-1.67h-8.5v14.77h9.31q4.86,0,7.54-2A6.77,6.77,0,0,0,95.36,171.59ZM97.69,200c0-3-1.11-5-3.34-6.17a19.49,19.49,0,0,0-8.9-1.72H75.83v16.39h9.72a26.83,26.83,0,0,0,4.2-.35,13.2,13.2,0,0,0,3.94-1.27,7.71,7.71,0,0,0,2.89-2.58A7.6,7.6,0,0,0,97.69,200Z"/><path d="M105.38,139.13a38.44,38.44,0,0,1-16.09,3.18A41.93,41.93,0,0,1,74,139.58a35.35,35.35,0,0,1-20.29-19.73,39.22,39.22,0,0,1-2.93-15.38,39.27,39.27,0,0,1,3-15.58A34.77,34.77,0,0,1,62,77a36.39,36.39,0,0,1,12.34-7.53,44.1,44.1,0,0,1,30.2,0,28.54,28.54,0,0,1,11.89,7.84L104.67,89.09a14.56,14.56,0,0,0-6.37-5,21.14,21.14,0,0,0-8.1-1.62,20.37,20.37,0,0,0-8.34,1.67,19.47,19.47,0,0,0-6.53,4.6,21,21,0,0,0-4.25,6.93,24.51,24.51,0,0,0-1.52,8.75,25.25,25.25,0,0,0,1.52,8.91,20.72,20.72,0,0,0,4.2,6.93,19,19,0,0,0,6.43,4.5,20.36,20.36,0,0,0,8.19,1.62,19,19,0,0,0,9-2,17.36,17.36,0,0,0,6.17-5.26l12,11.34A34.15,34.15,0,0,1,105.38,139.13Z"/><path d="M186,125.16a25.75,25.75,0,0,1-6.22,9.11,28.8,28.8,0,0,1-9.77,5.92,39.22,39.22,0,0,1-25.44,0,27.7,27.7,0,0,1-9.61-5.92,25.67,25.67,0,0,1-6.08-9.11,31.59,31.59,0,0,1-2.12-11.78V68.76H144V112a19.88,19.88,0,0,0,.76,5.57,14.08,14.08,0,0,0,2.33,4.7,10.88,10.88,0,0,0,4.14,3.29,16.62,16.62,0,0,0,12.45,0,11.4,11.4,0,0,0,4.2-3.29,13.2,13.2,0,0,0,2.33-4.7,21.47,21.47,0,0,0,.7-5.57V68.76h17.3v44.62A30.81,30.81,0,0,1,186,125.16Z"/><path d="M84.09,59.49l-3-7.72H65.83l-2.89,7.72H52.61L69.1,20.18h9.22L94.64,59.49ZM73.54,30.67l-5,13.49h9.88Z"/><path d="M124.29,59.49l-8.53-15.6h-3.24v15.6h-9.27V20.18h15a25.85,25.85,0,0,1,5.52.58,14.41,14.41,0,0,1,4.83,2A10.3,10.3,0,0,1,132,26.4a11.45,11.45,0,0,1,1.27,5.66,10.45,10.45,0,0,1-2.16,6.72,11.75,11.75,0,0,1-6,3.88l10.27,16.83Zm-.39-27.26a3.73,3.73,0,0,0-2.09-3.58,6.43,6.43,0,0,0-2.07-.64,15.35,15.35,0,0,0-2.2-.17h-5.08V37H117a15.3,15.3,0,0,0,2.4-.19,7.47,7.47,0,0,0,2.23-.7,4,4,0,0,0,2.29-3.88Z"/><path d="M164.32,59.49a26.44,26.44,0,0,1-8.55-1.33,18.15,18.15,0,0,1-6.63-3.92,17.64,17.64,0,0,1-4.28-6.33,22.56,22.56,0,0,1-1.53-8.58,20.52,20.52,0,0,1,1.61-8.21,19.09,19.09,0,0,1,4.47-6.39,20.25,20.25,0,0,1,6.78-4.13,24.86,24.86,0,0,1,16.9,0,20.4,20.4,0,0,1,6.72,4.1A18.41,18.41,0,0,1,184.22,31a20.42,20.42,0,0,1,1.59,8.14,17.3,17.3,0,0,1-.5,4.24A16.92,16.92,0,0,1,184,47a15.55,15.55,0,0,1-1.88,2.86A15.79,15.79,0,0,1,180,51.94v.16l8.27-.16v7.55Zm11.44-20.05a13.31,13.31,0,0,0-.81-4.71A10.61,10.61,0,0,0,172.68,31a10.15,10.15,0,0,0-3.53-2.42,11.6,11.6,0,0,0-4.5-.86,11.22,11.22,0,0,0-4.41.86A10.54,10.54,0,0,0,156.71,31a10.89,10.89,0,0,0-2.33,3.72,13.1,13.1,0,0,0-.83,4.71,14.16,14.16,0,0,0,.8,4.86,11.14,11.14,0,0,0,2.28,3.78,10.14,10.14,0,0,0,3.5,2.44,12,12,0,0,0,8.91,0,10.33,10.33,0,0,0,3.55-2.44,11.27,11.27,0,0,0,2.34-3.78A13.69,13.69,0,0,0,175.76,39.44Z"/><polygon class="cls-3" points="0 196.43 0 242.39 45.95 242.39 45.95 229.06 13.58 229.06 13.58 196.43 0 196.43"/><polygon class="cls-4" points="196.43 229.13 196.43 242.71 242.39 242.71 242.39 196.76 229.06 196.76 229.06 229.13 196.43 229.13"/><polygon class="cls-5" points="46.28 0 0.32 0 0.32 45.95 13.65 45.95 13.65 13.58 46.28 13.58 46.28 0"/><polygon class="cls-6" points="242.71 46.28 242.71 0.32 196.76 0.32 196.76 13.65 229.13 13.65 229.13 46.28 242.71 46.28"/><g class="cls-7"><g class="cls-8"><rect class="cls-9" x="118.8" y="150.06" width="77.22" height="71.97"/><g class="cls-10"><g class="cls-8"><rect class="cls-11" x="128.81" y="172.64" width="36.89" height="62.12" transform="translate(-82.12 100.92) rotate(-30)"/></g></g><g class="cls-12"><g class="cls-8"><rect class="cls-13" x="116.03" y="150.04" width="62.19" height="37.01"/></g></g><g class="cls-14"><g class="cls-8"><rect class="cls-15" x="146.51" y="167.53" width="62.16" height="36.89" transform="translate(-72.26 246.79) rotate(-60)"/></g></g><g class="cls-16"><rect class="cls-17" x="138.06" y="170.01" width="18.49" height="32.35" transform="translate(-73.36 98.6) rotate(-30)"/></g><g class="cls-18"><rect class="cls-19" x="146.29" y="167.51" width="31.97" height="19.12"/></g></g></g></g></svg>